<?xml version="1.0" standalone="no"?>
<!DOCTYPE svg PUBLIC "-//W3C//DTD SVG 1.1//EN" "http://www.w3.org/Graphics/SVG/1.1/DTD/svg11.dtd" >
<svg xmlns="http://www.w3.org/2000/svg">
<metadata></metadata>
<defs>
<font id="superspace_regularregular" horiz-adv-x="0" >
<font-face units-per-em="2048" ascent="1638" descent="-410" />
<missing-glyph horiz-adv-x="690" />
<glyph unicode="&#x3b;&#x3b;For&#x20;Education&#x20;Used&#x20;Only&#x3b;&#x3b;" horiz-adv-x="1306" d="M85 553q0 137 53.5 262t143.5 215t215 144t262 54q136 0 260.5 -54t215 -144t144.5 -215t54 -262t-54 -261.5t-144.5 -214.5t-215 -143.5t-260.5 -53.5q-137 0 -262 53.5t-215 143.5t-143.5 214.5t-53.5 261.5zM229 553q0 -143 71 -264.5t193 -192.5t266 -71h6 q101 0 258 68l-3 -1q67 39 112 87h1q74 73 114.5 169.5t40.5 204.5q0 143 -71 265t-193 193.5t-265 71.5q-144 0 -266 -71t-193 -193t-71 -266zM427 553q0 93 11 153v-1q13 99 101 158t222 59q119 0 295 -63l-47 -134q-151 56 -248 56q-81 0 -129 -27t-56 -69l1 1 q-9 -68 -9 -133q0 -58 7 -126v1q2 -11 2 -33q9 -42 57 -68t126 -26q91 0 249 57l47 -135q-176 -63 -296 -63q-131 0 -220 60t-102 159q-11 88 -11 174z" />
<glyph unicode="&#x3b;&#x3b;Registered&#x3b;&#x3b;" horiz-adv-x="1306" d="M88 548q0 181 89.5 334.5t243 243.5t335.5 90q135 0 258 -53.5t212.5 -142.5t143 -213t53.5 -259q0 -181 -90 -334.5t-243.5 -243t-333.5 -89.5q-181 0 -335 89.5t-243.5 243t-89.5 334.5zM230 548q0 -142 70.5 -263t191.5 -191t264 -70h6q97 0 255 68l-3 -1 q69 41 111 86h1q73 72 113.5 168t40.5 203q0 106 -41.5 203t-111.5 167.5t-167.5 112.5t-203.5 42q-143 0 -264 -70.5t-191.5 -191.5t-70.5 -263zM478 182v735h251q97 0 144 -5h-1q103 -11 146.5 -67.5t43.5 -172.5q0 -163 -104 -203l1 -2q2 -8 13 -35q48 -109 139 -251 h-166q-68 113 -128 265h-199v-264h-140zM618 588h150q108 0 123 3q26 6 31 33q2 14 2 49q0 22 -3 37.5t-7 27t-16.5 18.5t-23 11.5t-36.5 6t-46.5 2t-62.5 0.5h-111v-188z" />
<glyph unicode="&#x3b;&#x3b;Trademark&#x3b;&#x3b;" horiz-adv-x="1990" d="M175 1015v149h675v-149h-261v-531h-149v531h-265zM899 484v680h154l298 -410q51 73 155 206.5t153 203.5h153v-680h-148v422q-52 -72 -159 -209t-155 -204l-303 409v-418h-148z" />
<glyph unicode="&#x3b;&#x3b;Multiply&#x3b;&#x3b;" horiz-adv-x="1069" d="M150 333l243 242l-243 243l103 104l243 -243l243 243l105 -105l-243 -243l242 -242l-104 -103l-242 242q-38 -39 -122 -122.5t-120 -120.5z" />
<glyph unicode="&#x3b;&#x3b;Divide&#x3b;&#x3b;" horiz-adv-x="1050" d="M90 502v147h833v-147h-833zM408 282q0 43 30 73t73 30t72.5 -30t29.5 -73t-29.5 -73t-72.5 -30t-73 30t-30 73zM408 876q0 43 30 73t73 30t72.5 -30t29.5 -73t-29.5 -73t-72.5 -30t-73 30t-30 73z" />
<glyph unicode="&#x2018;&#x2018;" horiz-adv-x="623" d="M94 1314h156l-7 -400h-138zM359 1314h156l-7 -400h-138z" />
<glyph unicode="&#x2019;&#x2019;" horiz-adv-x="626" d="M102 1314h156l-7 -400h-138zM367 1314h156l-7 -400h-138z" />
<glyph unicode="&#xe24;&#xe32;" horiz-adv-x="1870" d="M125 312v628q218 83 391 83q185 0 302 -81q128 -86 128 -224v-1146h-147v1146q0 63 -76 111t-207 48q-109 0 -244 -42v-522q0 -56 10 -92t33 -55t51 -25.5t72 -6.5v-147q-153 0 -231.5 76.5t-81.5 248.5zM973 927q206 96 363 96q166 0 269.5 -89.5t103.5 -219.5v-1142 h-146v1141q-2 67 -60.5 115t-166.5 48q-123 0 -300 -83z" />
<glyph unicode="&#xe26;&#xe32;" horiz-adv-x="1846" d="M60 -13v147q23 0 44 9.5t21 19.5v777q216 83 389 83q184 0 304 -81q127 -88 127 -223v-1147h-147v1147q0 63 -76 110.5t-208 47.5q-117 0 -244 -41v-673q0 -74 -64 -125t-146 -51zM958 927q205 96 363 96q166 0 269.5 -89.5t103.5 -219.5v-1142h-146v1141q-2 67 -61 115 t-166 48q-122 0 -301 -83z" />
<glyph unicode="&#xd;" horiz-adv-x="579" />
<glyph unicode=" "  horiz-adv-x="690" />
<glyph unicode="&#x09;" horiz-adv-x="690" />
<glyph unicode="&#xa0;" horiz-adv-x="690" />
<glyph unicode="!" horiz-adv-x="423" d="M87 119q0 47 35 82t82 35q50 0 83.5 -34.5t33.5 -82.5t-33.5 -82.5t-83.5 -34.5q-47 0 -82 35t-35 82zM118 1255h172l-15 -927h-138z" />
<glyph unicode="&#x22;" horiz-adv-x="614" d="M89 1234h156l-7 -400h-138zM354 1234h156l-7 -400h-138z" />
<glyph unicode="#" horiz-adv-x="1364" d="M17 295v147h284q39 130 79 267h-246v146h289q15 54 46.5 159.5t40.5 137.5h153l-86 -297h357q58 196 86 297h154l-85 -296h215v-147h-260q-46 -164 -76 -266h221v-148h-264q-13 -44 -42.5 -146t-43.5 -150h-156l87 296h-357q-81 -282 -85 -296h-156l87 296h-242zM456 442 h357q13 45 38.5 129.5t40.5 137.5h-358q-9 -31 -35 -120.5t-43 -146.5z" />
<glyph unicode="$" horiz-adv-x="1084" d="M78 106l60 135q219 -100 401 -100q258 0 273 186q-1 30 -11 54t-30.5 41.5t-39 29.5t-52.5 21.5t-53.5 14.5t-58.5 12t-52 10q-9 2 -59 11t-89.5 18t-94.5 33.5t-92 56.5t-64 88.5t-27 128.5q3 70 27.5 125.5t62 91t88.5 59.5t103 35t111 14v117h148v-117 q156 -16 316 -81l-60 -136q-166 73 -344 73q-128 0 -211 -48.5t-93 -136.5q1 -37 19 -66t40.5 -46t62.5 -31.5t65 -20.5t69 -14t56 -11h-1q14 -4 48 -10t62 -11.5t67 -18t69.5 -26.5t63 -39t54 -55.5t35 -75t13.5 -97.5v-4q-9 -145 -98.5 -222.5t-232.5 -92.5v-121h-148v117 q-198 15 -403 109z" />
<glyph unicode="%" horiz-adv-x="1356" d="M45 797v111q0 97 67 164.5t164 67.5h122q95 0 163 -68t68 -164v-111q0 -96 -68 -164t-163 -68h-122q-96 0 -163.5 68t-67.5 164zM156 0l848 1150h184l-849 -1150h-183zM187 797q0 -37 26 -63.5t63 -26.5h122q36 0 62.5 26.5t26.5 63.5v111q0 37 -26.5 63t-62.5 26h-122 q-37 0 -63 -26t-26 -63v-111zM715 241v111q0 97 67.5 164.5t164.5 67.5h120q97 0 164.5 -67.5t67.5 -164.5v-111q0 -97 -67.5 -164.5t-164.5 -67.5h-120q-97 0 -164.5 67.5t-67.5 164.5zM857 241q0 -37 26.5 -63t63.5 -26h120q37 0 63.5 26t26.5 63v111q0 37 -26.5 63.5 t-63.5 26.5h-120q-37 0 -63.5 -26.5t-26.5 -63.5v-111z" />
<glyph unicode="&#x26;" horiz-adv-x="1267" d="M138 354v41q0 151 89 222q-86 83 -88 228v5q2 133 80 220t201 87h245v-141h-244q-63 0 -101.5 -45.5t-38.5 -122.5q0 -78 38 -122t103 -46h531v211h141v-211h79v-140h-79v-186q0 -103 -60.5 -188t-161.5 -133t-219 -48h-73q-116 0 -217.5 48t-163 133.5t-61.5 187.5z M281 355q0 -93 86.5 -160.5t212.5 -67.5h73q128 0 214 67.5t86 160.5v185h-532q-27 0 -48 -5t-43.5 -19t-35.5 -45t-13 -76v-40z" />
<glyph unicode="'" horiz-adv-x="301" d="M67 1234h157l-8 -400h-137z" />
<glyph unicode="(" horiz-adv-x="387" d="M63 606q0 373 133 723h158l-15 -39q-128 -311 -128 -687q0 -132 17.5 -267.5t44 -240.5t46 -168.5t35.5 -104.5h-158q-133 386 -133 784z" />
<glyph unicode=")" horiz-adv-x="417" d="M45 -178q17 43 35.5 105t45.5 168t44 241.5t17 266.5q0 373 -142 726h156q134 -349 134 -726q-1 -395 -134 -781h-156z" />
<glyph unicode="*" horiz-adv-x="923" d="M66 939l47 150l260 -93q-4 119 -8 275h157l-8 -274q36 13 126 44.5t131 46.5l50 -150l-261 -75v-4q140 -182 164 -213l-126 -92l-152 218h-3q-3 0 -3 -1h1q-1 0 -1 0.5t-1 0.5q-25 -37 -78 -113.5t-72 -104.5l-127 91l164 213v2q0 2 -1 3q-43 12 -134 39t-125 37z" />
<glyph unicode="+" horiz-adv-x="1002" d="M79 502v147h344v344h148v-344h342v-147h-342v-343h-148v343h-344z" />
<glyph unicode="," horiz-adv-x="425" d="M121 -85l29 341h170l-60 -341h-139z" />
<glyph unicode="-" horiz-adv-x="1063" d="M110 502v147h833v-147h-833z" />
<glyph unicode="." horiz-adv-x="394" d="M71 119q0 47 35 82t82 35q50 0 83.5 -34.5t33.5 -82.5t-33.5 -82.5t-83.5 -34.5q-47 0 -82 35t-35 82z" />
<glyph unicode="/" horiz-adv-x="735" d="M4 -168l665 1485h161l-666 -1487z" />
<glyph unicode="0" horiz-adv-x="1170" d="M139 608q0 138 16 251q21 141 140.5 231t297.5 95q178 -5 299.5 -94t138.5 -233v1q15 -103 15 -251q0 -137 -15 -287q-17 -145 -137.5 -234.5t-300.5 -92.5q-178 3 -298.5 94.5t-139.5 235.5q-16 152 -16 284zM287 608q0 -147 13 -251q6 -90 83 -149t210 -66 q131 9 206 67.5t88 149.5v-1q12 160 12 250q0 116 -14 231q-13 81 -91.5 136t-200.5 62q-122 -7 -200 -61.5t-92 -136.5q-14 -104 -14 -231z" />
<glyph unicode="1" horiz-adv-x="924" d="M96 809l475 340h139v-1149h-147v962q-73 -51 -216 -154t-163 -117z" />
<glyph unicode="2" horiz-adv-x="1146" d="M135 1080q202 86 405 86q66 0 127 -10t120 -34.5t103 -61t72 -95t31 -131.5q0 -55 -15.5 -101.5t-37.5 -79t-59.5 -61t-66.5 -44.5t-75.5 -32t-68.5 -22t-62 -16h1q-3 -1 -9.5 -2t-11.5 -2t-9 -2h1q-36 -8 -69.5 -21t-73.5 -38.5t-70 -59.5t-52.5 -87t-27.5 -118h681 v-148h-832v120q0 99 30 181t73 133.5t102.5 91t106.5 58.5t98 32q35 8 54 12.5t55 15.5t57.5 21.5t49 27.5t43 36t27 46t12.5 58q-8 90 -91.5 137.5t-212.5 47.5q-85 0 -178 -20.5t-166 -52.5z" />
<glyph unicode="3" horiz-adv-x="1115" d="M118 317h146q0 -103 47.5 -141.5t146.5 -38.5h161q103 0 150 25t47 85v147q0 32 -4.5 49t-23 32.5t-58 21.5t-107.5 6h-115v147h118q117 2 151.5 20.5t34.5 89.5v105q0 86 -46.5 119t-146.5 33h-161q-36 0 -62.5 -3.5t-52.5 -15t-42.5 -31t-26.5 -52.5t-10 -79h-146 q0 322 322 328h184q71 0 128 -14.5t105.5 -47.5t75.5 -93t27 -144v-107q-2 -120 -60 -181q63 -66 63 -182v-148q0 -254 -335 -258h-185q-325 6 -325 328z" />
<glyph unicode="4" horiz-adv-x="1112" d="M77 253v129l580 767h200v-748h127v-148h-127v-253h-146v253h-634zM276 401h435v574q-44 -59 -196.5 -259.5t-238.5 -314.5z" />
<glyph unicode="5" horiz-adv-x="1142" d="M141 316h147q0 -98 46 -138.5t148 -40.5h162q102 0 150 25.5t48 83.5v211q0 57 -47.5 82.5t-150.5 25.5h-475v589h796v-148h-649v-293h353q222 -7 290 -133h1q29 -55 29 -123v-211q0 -254 -336 -258h-185q-70 1 -127 18.5t-103 54.5t-71.5 101.5t-25.5 153.5z" />
<glyph unicode="6" horiz-adv-x="1126" d="M113 369q3 108 40 191l263 593h160l-184 -414q61 9 158 9q122 0 212 -12q118 -15 188 -127q59 -95 64 -240q-5 -151 -72 -251.5t-180 -115.5h-4q-115 -10 -208 -10q-119 0 -186 12h1q-113 15 -179.5 115.5t-72.5 249.5zM256 370q2 -64 19.5 -109.5t40.5 -69.5t60.5 -38 t68 -17t73.5 -3h32q106 0 186 10q24 0 50.5 18t43.5 45v-1q40 63 41 164q-1 100 -38 158t-94 67q-72 12 -189 12q-84 0 -165 -12q-49 -7 -87 -60t-42 -164z" />
<glyph unicode="7" horiz-adv-x="1040" d="M58 1005v148h842q23 0 32.5 -29t19.5 -99l-506 -1025h-165l495 1005h-718z" />
<glyph unicode="8" horiz-adv-x="1131" d="M126 289v107q0 126 62 185q-57 64 -59 182l1 104q1 72 21 126t50.5 86t75 52.5t87 28t93.5 8.5h185q72 -1 129.5 -17t104.5 -49.5t73 -93t26 -141.5v-106q-3 -121 -60 -179q27 -29 46 -69v-1q17 -42 17 -116v-107q0 -299 -332 -303h-187q-330 5 -333 303zM273 289 q0 -87 48.5 -121.5t149.5 -34.5h167q44 0 74.5 5.5t59.5 21t44 48t15 81.5v131q-5 50 -43.5 67.5t-150.5 19.5q-2 -1 -162 0q-90 0 -134 -10q-39 -7 -53.5 -25.5t-14.5 -75.5v-107zM277 765q0 -46 13 -67.5t52 -31.5t122 -11h177q114 0 150 20.5t36 89.5v102q0 86 -46 119 t-148 33h-162q-45 0 -76 -5t-60 -20t-43.5 -47t-14.5 -80v-102z" />
<glyph unicode="9" horiz-adv-x="1136" d="M114 783q5 148 73.5 248t180.5 119q76 12 210 12q106 0 185 -12q111 -20 178.5 -119.5t72.5 -247.5q-3 -105 -39 -191l-263 -592h-160l182 412q-57 -7 -156 -7q-124 0 -212 11q-119 17 -188 127q-59 95 -64 240zM257 784q2 -101 37 -159.5t88 -66.5q8 -1 15 -1.5t10 -0.5 q110 -10 171 -10q82 0 164 12q52 11 88 71t43 154q-3 63 -20.5 108t-40 69t-58 38t-65 17.5t-70.5 3.5h-41q-40 0 -81.5 -2t-74 -5t-36.5 -3h1q-54 -9 -88 -63h-1q-38 -58 -41 -162z" />
<glyph unicode=":" horiz-adv-x="445" d="M90 238q0 47 35 82t82 35q50 0 83.5 -34.5t33.5 -82.5t-33.5 -82.5t-83.5 -34.5q-47 0 -82 35t-35 82zM90 748q0 47 35 82t82 35q50 0 83.5 -34.5t33.5 -82.5t-33.5 -82.5t-83.5 -34.5q-47 0 -82 35t-35 82z" />
<glyph unicode=";" horiz-adv-x="469" d="M110 748q0 47 35 82t82 35q50 0 83.5 -34.5t33.5 -82.5t-33.5 -82.5t-83.5 -34.5q-47 0 -82 35t-35 82zM121 -85l29 341h170l-60 -341h-139z" />
<glyph unicode="&#x3c;" horiz-adv-x="790" d="M114 519v110l401 518h186l-444 -573q332 -428 444 -574h-186z" />
<glyph unicode="=" horiz-adv-x="1053" d="M125 354v148h799v-148h-799zM125 650v148h799v-148h-799z" />
<glyph unicode="&#x3e;" horiz-adv-x="800" d="M116 0l444 574q-28 36 -195.5 253t-248.5 320h187l373 -481l28 -37v-110l-401 -519h-187z" />
<glyph unicode="?" horiz-adv-x="1039" d="M80 1183q202 86 405 86q63 0 122.5 -9.5t120 -33.5t106 -60.5t74.5 -95.5t30 -133v-2q0 -54 -9.5 -98.5t-22.5 -75t-36 -55t-41.5 -37.5t-47 -25t-44 -16t-41.5 -10q-37 -9 -44 -10l2 1q-33 -7 -49 -12t-40 -17t-35 -27.5t-20 -43.5t-9 -66q0 -37 12 -123l-146 -23 q-15 100 -15 146q0 53 10.5 96t25 72.5t41 53.5t47.5 37.5t56.5 26t56 17.5t56.5 12h-1q66 15 84 23q59 26 62 153q-7 91 -93 139t-212 48q-85 0 -179 -21t-167 -54zM342 119q0 47 35 82t82 35q50 0 83.5 -34.5t33.5 -82.5t-33.5 -82.5t-83.5 -34.5q-47 0 -82 35t-35 82z " />
<glyph unicode="@" horiz-adv-x="1555" d="M104 548q0 181 89 334.5t243 243.5t335 90q135 0 258.5 -53.5t213 -142.5t142.5 -213t53 -259q0 -181 -90 -334.5t-243.5 -243t-333.5 -89.5q-181 0 -335 89.5t-243 243t-89 334.5zM246 548q0 -107 41.5 -203.5t111.5 -167t167.5 -112t204.5 -41.5q79 0 160 25v164 q-120 -41 -213 -41q-121 0 -194 62.5t-73 178.5q0 132 75.5 197t201.5 65q82 0 203 -31v38q0 44 -41 69t-111 25q-116 0 -245 -82l-72 120q164 105 317 105q123 0 208 -62.5t85 -174.5v-563q50 37 69 58h1q73 72 113 168t40 203q0 142 -70 263t-191 191.5t-263 70.5 q-143 0 -264 -70.5t-191 -191.5t-70 -263zM593 413q0 -51 29.5 -74.5t95.5 -23.5q89 0 213 48v133q-121 35 -203 35q-72 0 -103.5 -26.5t-31.5 -91.5z" />
<glyph unicode="A" horiz-adv-x="1259" d="M58 0l488 1161h181l488 -1161h-163l-112 268h-607q-15 -36 -54 -129t-58 -139h-163zM396 417h481q-46 111 -123.5 295t-116.5 279q-25 -61 -108.5 -259t-132.5 -315z" />
<glyph unicode="B" horiz-adv-x="1249" d="M157 1v1162h450q147 0 204 -7q136 -17 194.5 -91t58.5 -223q0 -131 -58 -197q61 -38 85 -105t24 -170v-1q0 -53 -4.5 -96t-15.5 -77.5t-23.5 -61.5t-34.5 -47t-43 -34.5t-54 -24t-61.5 -15.5t-72 -8.5t-80 -3.5t-90.5 -1h-41zM306 149q84 1 252.5 3t252.5 4q59 6 90 22.5 t48 61.5t17 129v1q0 34 -2.5 58.5t-11.5 44t-17.5 32t-30.5 22t-40 14t-56 7t-69 3t-88 0.5h-345v-402zM306 700q63 0 188 -0.5t188 -0.5q140 0 194 30q20 12 29.5 36.5t9.5 77.5q0 42 -4 69t-19.5 47.5t-33.5 31t-58 16.5t-80.5 7.5t-112.5 1.5h-301v-316z" />
<glyph unicode="C" horiz-adv-x="1139" d="M99 611q0 146 17 255v-1q21 150 159 240t347 90q195 0 445 -91l-50 -140q-223 82 -395 82q-157 0 -251 -57t-108 -146v1q-16 -113 -16 -233q0 -131 16 -270v-3q17 -87 112 -144t246 -57q172 0 396 82l50 -140q-250 -91 -446 -91q-205 0 -343.5 91.5t-161.5 239.5 q-17 153 -17 292z" />
<glyph unicode="D" horiz-adv-x="1193" d="M122 29v1123q254 25 417 25q263 0 386.5 -72t147.5 -241v1q18 -107 18 -255q0 -68 -4.5 -136.5t-9 -111t-4.5 -45.5q-24 -172 -148.5 -242.5t-385.5 -70.5q-163 0 -417 25zM272 165q150 -12 267 -12q145 0 227 20.5t116.5 58.5t43.5 106l3 21q2 12 3 29t2 29q0 21 4 86.5 t4 106.5q0 121 -16 234v-1q-6 37 -17 63t-36.5 50.5t-65.5 39t-105 23.5t-154 9q-132 0 -276 -11v-852z" />
<glyph unicode="E" horiz-adv-x="1093" d="M122 0v1163h861v-148h-711v-360h649v-148h-649v-359h711v-148h-861z" />
<glyph unicode="F" horiz-adv-x="1093" d="M122 0v1163h859v-148h-711v-360h651v-148h-651v-507h-148z" />
<glyph unicode="G" horiz-adv-x="1188" d="M106 600q0 138 17 256q28 147 166.5 238.5t339.5 92.5q195 -2 446 -92l-51 -139q-223 81 -395 81q-156 0 -250.5 -57t-106.5 -146q-17 -102 -17 -234q0 -170 16 -266l1 -6q10 -87 104 -144.5t253 -57.5q129 0 289 47v309h150l-1 -416q-242 -89 -438 -89q-209 0 -348 90.5 t-158 241.5v2q-17 153 -17 289z" />
<glyph unicode="H" horiz-adv-x="1211" d="M123 0v1161h149v-506h668v506h148v-1161h-148v506h-668v-506h-149z" />
<glyph unicode="I" horiz-adv-x="445" d="M158 0v1161h149v-1161h-149z" />
<glyph unicode="J" horiz-adv-x="972" d="M73 31l26 146q296 -54 389 -54q126 0 174 53t48 198v639h-290v150l439 -2v-787q0 -217 -85 -306t-280 -89q-141 0 -421 52z" />
<glyph unicode="K" horiz-adv-x="1179" d="M123 0v1160h149v-532q127 59 264 89q194 31 277 131t83 282v32h148v-32q0 -286 -168 -432q34 -13 71 -41q53 -38 82 -94t29 -121v-442h-150v441q-2 62 -58.5 102.5t-165.5 40.5q-186 0 -412 -125v-459h-149z" />
<glyph unicode="L" horiz-adv-x="1076" d="M122 0v1164h148v-1014h708v-150h-856z" />
<glyph unicode="M" horiz-adv-x="1327" d="M125 0v1164h133l404 -466q319 367 405 466h132v-1164h-147v917q-372 -427 -390 -448l-389 449v-918h-148z" />
<glyph unicode="N" horiz-adv-x="1210" d="M123 0v1164h132l680 -798v798h152v-1164h-152v137q-124 146 -338 397.5t-326 382.5v-917h-148z" />
<glyph unicode="O" horiz-adv-x="1242" d="M99 603q0 139 18 258v-1q22 151 159 240t344 89q211 0 346 -90t159 -238q17 -112 17 -258q0 -131 -17 -293q-20 -150 -158.5 -240t-346.5 -90q-205 0 -344 89t-159 243q-18 153 -18 291zM247 603q0 -131 16 -270v-3q15 -86 108.5 -144t248.5 -58q157 0 250.5 58 t106.5 145q1 4 1.5 11t0.5 11q14 147 14 237q0 131 -16 247q-21 86 -116.5 144t-240.5 58q-153 0 -248.5 -57.5t-108.5 -144.5q-16 -105 -16 -234z" />
<glyph unicode="P" horiz-adv-x="1122" d="M122 0v1163h423h70t65 -1.5t65 -4.5t57.5 -9t55.5 -14.5t46.5 -21.5t42.5 -30t32 -40.5t26 -51.5v2q30 -72 30 -200q0 -63 -7.5 -112t-26.5 -84t-37 -60t-55.5 -40.5t-63.5 -24.5t-79 -13t-84.5 -4.5t-96.5 -0.5h-7h-306v-453h-150zM272 602h306q137 0 184 7 q36 5 55.5 11.5t37.5 25t24.5 54t6.5 93.5v1q0 41 -2 68.5t-10.5 52t-18.5 39t-33 27t-46.5 18t-67 9.5t-86 5t-111.5 1h-239v-412z" />
<glyph unicode="Q" horiz-adv-x="1245" d="M101 601q0 154 16 257q25 150 162 239.5t343 89.5q205 0 343 -89.5t162 -239.5v-1q17 -119 17 -256q0 -124 -17 -294q-20 -136 -134.5 -222t-295.5 -103q3 -46 30 -75t99 -29q59 0 173 26l35 -147q-131 -28 -208 -28q-74 0 -128 18.5t-82 44.5t-44 64t-20 65t-4 61 q-183 17 -297.5 103.5t-133.5 224.5q-16 136 -16 291zM249 601q0 -139 15 -269l1 -5q12 -86 105.5 -143t251.5 -58q155 1 248 58t109 143v6q16 104 16 268q0 127 -16 233q-19 87 -112.5 145.5t-244.5 58.5t-245 -58t-112 -145q-16 -118 -16 -234z" />
<glyph unicode="R" horiz-adv-x="1123" d="M123 -1v1164h381q155 0 239 -9h-1q158 -17 222 -101t64 -262q0 -144 -46 -221t-146 -99q15 -39 29 -72v1q5 -11 15 -37v1q83 -195 196 -366h-177q-131 219 -213 455q-70 -2 -115 -2h-299v-452h-149zM272 601h299q122 0 184.5 7t85.5 26h-1q41 35 41 159q0 33 -1.5 58 t-8 46.5t-12.5 36.5t-21 28t-28 21t-38.5 14t-47.5 9t-61 4.5t-72 2t-87 0.5h-232v-412z" />
<glyph unicode="S" horiz-adv-x="1081" d="M84 106l61 134q216 -98 403 -98q122 0 197 44.5t83 140.5q-2 39 -22 69.5t-46 48t-68 32t-71 20.5t-73 13q-16 3 -24 4q-9 2 -45.5 8t-63 11.5t-69 18t-73.5 27.5t-66.5 41t-58 57t-37.5 76t-15 99q0 75 27.5 134t72.5 96.5t106 61.5t122.5 34t128.5 10q211 0 409 -88 l-61 -135q-72 33 -166.5 53.5t-181.5 20.5q-139 0 -222.5 -47t-85.5 -142q0 -31 10.5 -56t32.5 -43t42.5 -30t56 -22.5t56.5 -15.5t59 -12q51 -8 97 -19l-1 1q39 -7 61 -11.5t67.5 -17t73.5 -26.5t65 -40t58.5 -56.5t37 -76t16.5 -100.5v-4l-1 -1q-3 -72 -28.5 -129 t-65.5 -94t-95 -61.5t-112.5 -34.5t-121.5 -10q-110 0 -234 31t-235 84z" />
<glyph unicode="T" horiz-adv-x="1008" d="M33 1015v149h945v-149h-396v-1015h-149v1015h-400z" />
<glyph unicode="U" horiz-adv-x="1211" d="M115 649v512h149v-512q0 -217 10 -294q9 -66 25 -105.5t52.5 -69.5t97.5 -42t157 -12q49 0 87.5 3t70.5 11.5t56 18.5t43.5 30t32.5 39t22.5 51.5t14.5 63t8 78t4 91t1 107.5v542h149v-511q0 -210 -11 -314q-26 -196 -137 -278.5t-344 -82.5q-79 0 -142.5 9.5 t-111.5 23.5t-84.5 44.5t-61.5 57.5t-41.5 77t-26 89.5t-14 110t-5.5 122t-1 140.5z" />
<glyph unicode="V" horiz-adv-x="1192" d="M8 1163h162l426 -993q75 176 218.5 511t205.5 482h162l-496 -1163h-182z" />
<glyph unicode="W" horiz-adv-x="1404" d="M112 1163h149l96 -929q46 61 162 212t173 226l329 -430q4 37 40.5 390t54.5 531h150l-120 -1163h-130l-324 425q-302 -396 -324 -425h-136z" />
<glyph unicode="X" horiz-adv-x="1228" d="M47 0l451 581q-79 101 -238 306.5t-213 275.5h190l376 -489q267 347 378 489h189l-450 -581l450 -582h-189l-378 489q-43 -56 -174.5 -227.5t-201.5 -261.5h-190z" />
<glyph unicode="Y" horiz-adv-x="1195" d="M38 1163h188l377 -489q267 347 378 489h189l-491 -633v-530h-149v526q-76 99 -246 318.5t-246 318.5z" />
<glyph unicode="Z" horiz-adv-x="1167" d="M106 140l747 874h-745v148h903q37 0 51 -131l-751 -883h752v-148h-902q-38 0 -55 140z" />
<glyph unicode="[" horiz-adv-x="472" d="M127 -180v1512h333v-149h-185v-1215h185v-148h-333z" />
<glyph unicode="\" horiz-adv-x="765" d="M-63 1317h161l663 -1487h-159z" />
<glyph unicode="]" horiz-adv-x="486" d="M42 -32h185v1215h-185v148h333v-1512h-333v149z" />
<glyph unicode="^" horiz-adv-x="1015" d="M64 762l361 467h158l360 -467h-186l-254 326q-31 -41 -253 -326h-186z" />
<glyph unicode="_" horiz-adv-x="1135" d="M71 0h1014v-148h-1014v148z" />
<glyph unicode="`" horiz-adv-x="465" d="M67 1236h192l175 -425h-158z" />
<glyph unicode="a" horiz-adv-x="1029" d="M103 300q0 172 94.5 255t261.5 83q125 0 301 -49v82q0 70 -61 112.5t-164 42.5q-172 0 -343 -110l-78 122q209 135 415 135q100 0 184 -32t139 -102t55 -168v-671h-99q-26 0 -41 64q-183 -67 -324 -67q-154 0 -247 81t-93 222zM249 304q0 -78 45 -118q48 -43 149 -43 q134 0 317 75v217q-188 57 -301 57q-108 0 -159 -45.5t-51 -142.5z" />
<glyph unicode="b" horiz-adv-x="1032" d="M123 0v1275h147v-365q133 60 263 60q150 0 259.5 -76.5t128.5 -192.5v-1q14 -96 14 -201q0 -34 -1.5 -69.5t-3.5 -62.5t-4 -48.5t-3.5 -35t-1.5 -14.5q-19 -135 -123.5 -201.5t-248.5 -66.5q-143 0 -287 59q-11 -60 -40 -60h-99zM270 218q139 -71 279 -71q93 0 153.5 36 t72.5 107q1 10 3 29.5t3 29.5q7 91 7 150q0 94 -13 179v-1q-9 58 -75.5 102t-166.5 44q-128 0 -263 -79v-526z" />
<glyph unicode="c" horiz-adv-x="950" d="M113 497q0 115 13 201q18 123 129.5 196t278.5 73q155 0 357 -75l-50 -136q-176 64 -307 64q-115 0 -183.5 -41t-78.5 -103q-12 -72 -12 -179q0 -79 9 -187q0 -2 1 -4v-3q8 -68 75 -112.5t189 -44.5q131 0 307 64l50 -136q-206 -75 -357 -75q-167 0 -279.5 73.5 t-128.5 197.5q-13 97 -13 227z" />
<glyph unicode="d" horiz-adv-x="1035" d="M101 498q0 118 14 202v-1q17 115 127 192.5t261 77.5q130 0 262 -61v366h147v-1274h-99q-27 0 -40 60q-145 -60 -287 -60q-93 0 -170 26.5t-133.5 89.5t-67.5 155q-14 105 -14 227zM247 498q0 -67 10 -187q0 -1 0.5 -2t0.5 -3q32 -159 228 -159q140 0 279 72v525 q-132 78 -262 78q-102 0 -168.5 -43.5t-74.5 -101.5q-13 -78 -13 -179z" />
<glyph unicode="e" horiz-adv-x="1030" d="M112 498q0 118 13 202q21 118 127.5 190.5t262.5 76.5h9q158 -3 264 -75t125 -193q13 -91 13 -192v-119h-663q0 -29 0.5 -47.5t1 -26.5t0.5 -10q8 -68 76.5 -113t190.5 -45q129 0 308 65l50 -138q-203 -73 -358 -73q-166 0 -278 73.5t-129 197.5q-13 97 -13 227zM261 535 h516q-2 85 -9 143v-1q-10 61 -74.5 100.5t-174.5 41.5q-111 -2 -174.5 -42t-73.5 -99q-8 -56 -10 -143z" />
<glyph unicode="f" horiz-adv-x="561" d="M53 803v147h114v12q1 34 2.5 58t8.5 59.5t18 60.5t32 52.5t50 44.5t72.5 28t98.5 11q48 0 140 -14l-23 -146q-75 13 -117 13q-93 0 -116 -43v-1q-19 -31 -19 -123v-12h230v-147h-230v-1021q-11 -112 -48 -112l-99 -1v1134h-114z" />
<glyph unicode="g" horiz-adv-x="1036" d="M102 469q0 109 14 228q12 92 68.5 154.5t133 89t169.5 26.5q144 0 287 -59q11 59 40 59h99v-939q0 -47 -5 -87t-27 -92.5t-59 -88.5t-108 -61.5t-167 -25.5q-126 0 -315 48l34 142q176 -44 281 -44q61 0 104 14.5t65 33.5t34 51t14 54t2 56v30q-133 -60 -262 -60 q-151 0 -260.5 76t-127.5 193q-14 84 -14 202zM250 469q0 -100 12 -179q7 -58 73.5 -101.5t168.5 -43.5q124 0 262 79v525q-139 72 -279 72q-96 0 -156 -36t-69 -106v1q-12 -121 -12 -211z" />
<glyph unicode="h" horiz-adv-x="1057" d="M123 0v1274h146v-365q133 60 263 60q150 0 261.5 -77t127.5 -193q13 -81 13 -201v-498h-147v498q0 99 -12 178q-10 58 -76.5 102t-166.5 44q-128 0 -263 -79v-743h-146z" />
<glyph unicode="i" horiz-adv-x="387" d="M102 1166q0 41 29 70t69 29t69.5 -29.5t29.5 -69.5t-29 -69t-70 -29q-40 0 -69 29t-29 69zM135 0v970h99q35 0 48 -112v-858h-147z" />
<glyph unicode="j" horiz-adv-x="387" d="M-141 -304l23 146q75 -13 117 -13q29 0 51 6t36.5 12.5t24 22.5t14 25t7 32.5t2.5 32v34.5v973h99q35 0 48 -112v-861q0 -31 -1 -52.5t-7 -56.5t-16 -60t-31 -54t-50 -47t-74.5 -30t-102.5 -12t-140 14zM101 1163q0 41 29 70t69 29q41 0 70 -29t29 -70q0 -40 -29 -69 t-70 -29t-69.5 28.5t-28.5 69.5z" />
<glyph unicode="k" horiz-adv-x="1065" d="M123 0v1274h146v-650q150 72 272 87q139 13 196.5 68t57.5 194h146q0 -219 -108 -313q2 -2 6 -4.5t6 -3.5q96 -72 96 -189v-463h-146v462q-2 47 -45.5 77.5t-129.5 30.5q-156 0 -351 -110v-460h-146z" />
<glyph unicode="l" horiz-adv-x="396" d="M134 0v1275h99q35 0 48 -112v-1163h-147z" />
<glyph unicode="m" horiz-adv-x="1440" d="M128 0v967h99q29 0 43 -72q153 75 261 75q64 0 123 -28t89 -73q193 102 309 102q58 0 117 -22t85 -59l-1 1q47 -64 47 -169v-722h-146v722q0 48 -28 75.5t-74 27.5q-97 0 -275 -106q0 -6 0.5 -80.5t0.5 -242v-397.5h-147v723q0 48 -27.5 75t-72.5 27q-91 0 -256 -92v-732 h-147z" />
<glyph unicode="n" horiz-adv-x="1030" d="M115 0v967h99q29 0 43 -80q190 93 345 93q136 0 221 -69.5t85 -183.5v-727h-146v727q0 47 -40.5 76.5t-119.5 29.5q-146 0 -341 -110v-723h-146z" />
<glyph unicode="o" horiz-adv-x="1063" d="M113 510q0 115 14 206q0 1 1 4l1 4q18 118 122 189.5t261 81.5q170 0 285.5 -71.5t136.5 -197.5l1 -9q14 -140 14 -237q0 -111 -14 -209l-1 -4q-22 -122 -132.5 -197t-271.5 -75h-18q-158 8 -262 80.5t-121 190.5q-2 6 -4 28q-12 120 -12 216zM263 510q0 -122 12 -201 q8 -65 70.5 -111.5t175.5 -53.5h9q111 4 177.5 45t77.5 104q13 88 13 187q0 86 -9 197q0 1 -0.5 3.5t-0.5 3.5q-9 64 -76 108.5t-180 53.5q-113 -4 -178.5 -44.5t-77.5 -103.5v1q-13 -97 -13 -189z" />
<glyph unicode="p" horiz-adv-x="1035" d="M123 -331v1298h100q27 0 39 -59q143 59 287 59q93 0 170 -26.5t133.5 -89t67.5 -153.5v-2q14 -105 14 -227q0 -110 -14 -202q-17 -116 -127.5 -192.5t-260.5 -76.5q-129 0 -262 60v-389h-147zM270 224q138 -79 262 -79q101 0 167.5 43.5t75.5 102.5q13 77 13 178 q0 87 -10 177q-2 10 -2 17q-8 77 -68 117.5t-159 40.5q-131 0 -279 -72v-525z" />
<glyph unicode="q" horiz-adv-x="1035" d="M101 469q0 124 14 229q11 91 67.5 153.5t134 89t169.5 26.5q144 0 287 -59q12 59 39 59h100v-1298h-147v389q-133 -60 -262 -60q-150 0 -260.5 76.5t-127.5 192.5q-14 92 -14 202zM247 469q0 -101 13 -178q9 -59 75.5 -102.5t167.5 -43.5q124 0 262 79v525 q-141 72 -279 72q-103 0 -166 -45.5t-63 -129.5q-10 -90 -10 -177z" />
<glyph unicode="r" horiz-adv-x="596" d="M117 0v967h99q31 0 41 -65q139 76 291 76v-108q-4 -28 -56 -41q-109 -12 -228 -94v-735h-147z" />
<glyph unicode="s" horiz-adv-x="880" d="M63 87l61 133q177 -82 325 -82q94 0 150 35.5t58 101.5q1 27 -11.5 47.5t-29 33t-52.5 24t-62 17t-77 15.5q-2 0 -36 5.5t-52.5 9.5t-56.5 15t-62 23.5t-55 34.5t-49 48.5t-31 65t-13 83.5q3 64 27 113.5t61 80t87.5 50.5t100.5 28t105 9q171 -2 338 -73l-61 -135 q-135 61 -277 61q-106 0 -169 -34t-65 -104q0 -17 5 -32t16.5 -26.5t22.5 -21t30 -17t32 -12.5t36.5 -10t34 -7.5t34.5 -6.5t29 -5q9 -2 37.5 -7t51 -9.5t56 -15t59 -22.5t54 -33.5t47 -47.5t30.5 -64.5t12 -83.5l-1 -4q-4 -75 -35 -130.5t-82 -86t-110 -45t-127 -14.5 q-181 0 -386 95z" />
<glyph unicode="t" horiz-adv-x="658" d="M61 802v147h116v325h146v-325h230v-147h-230v-488q0 -80 13 -108q25 -59 122 -59q42 0 117 13l23 -146q-83 -14 -140 -14t-102.5 12.5t-74.5 30t-50 47t-31 54.5t-15.5 61t-6.5 57t-1 52v488h-116z" />
<glyph unicode="u" horiz-adv-x="1039" d="M123 240v727h146v-727q0 -47 40.5 -76.5t119.5 -29.5q147 0 341 110v723h146v-967h-98q-30 0 -44 80q-187 -91 -345 -93q-137 2 -221.5 70.5t-84.5 182.5z" />
<glyph unicode="v" horiz-adv-x="977" d="M5 969h123q26 0 76 -91l283 -669q69 164 324 760h159l-418 -969h-136z" />
<glyph unicode="w" horiz-adv-x="1328" d="M127 244v722h146v-722q0 -41 50.5 -75.5t120.5 -34.5q80 0 142 55v525h146v-523q71 -57 143 -57q70 0 120.5 34.5t50.5 75.5v722h147v-722q0 -110 -97 -183.5t-221 -73.5q-119 0 -215 73q-96 -73 -216 -73q-124 0 -220.5 73.5t-96.5 183.5z" />
<glyph unicode="x" horiz-adv-x="1068" d="M30 0l411 485q-101 118 -411 485h193l315 -371q133 156 316 371h193l-412 -485l412 -485h-192l-317 371q-61 -72 -181 -213t-135 -158h-192z" />
<glyph unicode="y" horiz-adv-x="1049" d="M115 469l1 499h146v-499q0 -99 12 -179q10 -58 76.5 -101.5t166.5 -43.5q125 0 263 79v744h147l-1 -940q0 -47 -5 -86t-27 -92t-59 -89t-108 -61.5t-167 -25.5q-128 0 -317 48l37 141q172 -42 280 -42q58 0 100 12.5t65 30.5t35.5 46t16 51.5t3.5 54.5v42 q-131 -59 -263 -59q-152 0 -260.5 75t-127.5 193q-14 92 -14 202z" />
<glyph unicode="z" horiz-adv-x="984" d="M101 112v23l586 689h-586v146h741q37 0 48 -112v-21l-587 -690h587v-147h-742q-34 0 -47 112z" />
<glyph unicode="{" horiz-adv-x="568" d="M44 502v148q86 0 100 10q29 14 29 99v270q0 73 22 128t56.5 87t85 52t98.5 26.5t107 7.5v-149q-54 0 -89 -5t-68 -20t-49 -46.5t-16 -80.5v-270q0 -121 -49 -184q49 -65 49 -182v-272q0 -89 55 -120.5t167 -31.5v-148q-369 0 -369 300v272q0 42 -10 74q-5 20 -30 27.5 t-89 7.5z" />
<glyph unicode="|" horiz-adv-x="377" d="M124 -170v1491h148v-1491h-148z" />
<glyph unicode="}" horiz-adv-x="565" d="M36 -30q43 0 72.5 2.5t60 11.5t49 25.5t30 44.5t11.5 67v271q0 121 49 183q-49 67 -49 183v271q0 89 -55.5 121t-167.5 32v148q370 0 370 -301v-271q0 -47 10 -74q5 -20 30 -27.5t89 -7.5v-148q-86 0 -100 -10q-29 -15 -29 -99v-271q0 -73 -22 -127.5t-56.5 -86.5 t-85.5 -52t-99 -26.5t-107 -7.5v149z" />
<glyph unicode="~" horiz-adv-x="1095" d="M108 503q7 33 24.5 65.5t45.5 64.5t71.5 51.5t95.5 19.5q110 0 248 -87l-1 1q105 -62 164 -62q33 0 53.5 26t29.5 56l157 -41q-10 -34 -28 -66.5t-46.5 -64.5t-71.5 -51.5t-94 -19.5q-107 0 -250 88q-97 60 -161 60q-61 0 -85 -80z" />
<glyph unicode="&#xad;" horiz-adv-x="1063" d="M110 502v147h833v-147h-833z" />
<glyph unicode="&#xde;" horiz-adv-x="1614" d="M119 0v949q217 84 392 84q189 0 311.5 -85.5t122.5 -221.5v-434q0 -64 50 -109.5t122 -45.5h50q73 0 122.5 45.5t49.5 109.5v732h147v-732q0 -127 -94 -215t-225 -88h-50q-131 0 -225.5 88.5t-94.5 214.5l1 433q-1 64 -77 112t-210 48q-107 0 -245 -41v-844h-147z M809 -165l136 56q25 -54 72 -89t100 -35h50q54 0 101 35.5t69 88.5l138 -56q-42 -96 -125.5 -155.5t-182.5 -59.5h-50q-100 0 -183 59t-125 156z" />
<glyph unicode="&#xe0d;" horiz-adv-x="1614" d="M119 0v949q217 84 392 84q189 0 311.5 -85.5t122.5 -221.5v-434q0 -64 50 -109.5t122 -45.5h50q73 0 122.5 45.5t49.5 109.5v732h147v-732q0 -127 -94 -215t-225 -88h-50q-131 0 -225.5 88.5t-94.5 214.5l1 433q-1 64 -77 112t-210 48q-107 0 -245 -41v-844h-147z M809 -165l136 56q25 -54 72 -89t100 -35h50q54 0 101 35.5t69 88.5l138 -56q-42 -96 -125.5 -155.5t-182.5 -59.5h-50q-100 0 -183 59t-125 156z" />
<glyph unicode="&#x152;" d="M-666 1348v147h194v-131h440v-148h-586v110q0 9 2 23q-10 0 -27.5 -0.5t-22.5 -0.5z" />
<glyph unicode="&#xf70b;" d="M-666 1348v147h194v-131h440v-148h-586v110q0 9 2 23q-10 0 -27.5 -0.5t-22.5 -0.5z" />
<glyph unicode="&#x153;" d="M-666 1617v146h193v-130h340v-146h-485v109q0 9 2 21h-50z" />
<glyph unicode="&#xf714;" d="M-666 1617v146h193v-130h340v-146h-485v109q0 9 2 21h-50z" />
<glyph unicode="&#x160;" d="M-585 1186v218l548 45l11 -148l-412 -35q-2 -41 -11 -60.5t-28 -19.5h-108z" />
<glyph unicode="&#xf709;" d="M-585 1186v218l548 45l11 -148l-412 -35q-2 -41 -11 -60.5t-28 -19.5h-108z" />
<glyph unicode="&#x161;" d="M-874 1319v82q0 80 54 126t126 48h456v-147h-455q-17 0 -26 -7q-8 -8 -9 -23v-78q1 -30 43 -30q13 0 25 4q2 30 2 32h147v-37q8 -4 21 -4q20 0 34 16.5t15 49.5h145q0 -99 -59 -155.5t-135 -56.5q-57 0 -99 26q-42 -21 -96 -21q-75 0 -132 45.5t-57 129.5z" />
<glyph unicode="&#xf712;" d="M-874 1319v82q0 80 54 126t126 48h456v-147h-455q-17 0 -26 -7q-8 -8 -9 -23v-78q1 -30 43 -30q13 0 25 4q2 30 2 32h147v-37q8 -4 21 -4q20 0 34 16.5t15 49.5h145q0 -99 -59 -155.5t-135 -56.5q-57 0 -99 26q-42 -21 -96 -21q-75 0 -132 45.5t-57 129.5z" />
<glyph unicode="&#x178;" d="M-558 1440v218l548 45l12 -148l-412 -35q-6 -80 -39 -80h-109z" />
<glyph unicode="&#xf717;" d="M-558 1440v218l548 45l12 -148l-412 -35q-6 -80 -39 -80h-109z" />
<glyph unicode="&#x17d;" d="M-460 1290v148h103v103h110q14 0 25 -22.5t13 -59.5v-21h103v-148h-103v-103h-148v103h-103z" />
<glyph unicode="&#xf70d;" d="M-460 1290v148h103v103h110q14 0 25 -22.5t13 -59.5v-21h103v-148h-103v-103h-148v103h-103z" />
<glyph unicode="&#x17e;" d="M-653 1588v147h102v102h109q14 0 24.5 -22t13.5 -59v-21h101v-147h-101v-101h-147v101h-102z" />
<glyph unicode="&#xf716;" d="M-653 1588v147h102v102h109q14 0 24.5 -22t13.5 -59v-21h101v-147h-101v-101h-147v101h-102z" />
<glyph unicode="&#x192;" d="M-933 1145v98q0 35 99 48h292q8 45 42.5 74t80.5 29q51 0 87.5 -36.5t36.5 -88.5t-36.5 -88t-87.5 -36h-514z" />
<glyph unicode="&#xf703;" d="M-933 1145v98q0 35 99 48h292q8 45 42.5 74t80.5 29q51 0 87.5 -36.5t36.5 -88.5t-36.5 -88t-87.5 -36h-514z" />
<glyph unicode="&#x2c6;" d="M-966 1280v20q0 76 52.5 143t122.5 84l102 -39q53 24 97 43q25 -9 26 -10q58 -24 98 -69.5t53 -102.5q25 24 25 57v119h135v-119q0 -73 -47 -131.5t-131 -89.5h-70q-34 0 -45 92v23q0 51 -41 78q-6 -3 -99 -41l-97 41q-42 -30 -42 -78v-115h-94q-15 0 -27.5 25.5 t-17.5 69.5z" />
<glyph unicode="&#xf707;" d="M-966 1280v20q0 76 52.5 143t122.5 84l102 -39q53 24 97 43q25 -9 26 -10q58 -24 98 -69.5t53 -102.5q25 24 25 57v119h135v-119q0 -73 -47 -131.5t-131 -89.5h-70q-34 0 -45 92v23q0 51 -41 78q-6 -3 -99 -41l-97 41q-42 -30 -42 -78v-115h-94q-15 0 -27.5 25.5 t-17.5 69.5z" />
<glyph unicode="&#x2dc;" d="M-861 1145v275h107q33 0 39 -81v-47l427 2v-149h-573z" />
<glyph unicode="&#xf710;" d="M-861 1145v275h107q33 0 39 -81v-47l427 2v-149h-573z" />
<glyph unicode="&#xe01;" horiz-adv-x="1046" d="M113 0v939q216 85 389 85q184 0 302 -81q129 -85 129 -224v-719h-147v719q0 62 -75.5 110t-208.5 48q-116 0 -243 -41v-836h-146z" />
<glyph unicode="&#xe02;" horiz-adv-x="998" d="M105 364v130l106 359q-3 10 -23 18t-40 8v148q82 -2 146 -55t64 -127l-108 -362v-119q0 -94 70.5 -160.5t171.5 -66.5h5q100 0 171 66.5t71 160.5v653h145v-653q0 -157 -113 -265t-274 -108h-5q-160 0 -273.5 108.5t-113.5 264.5z" />
<glyph unicode="&#xe03;" horiz-adv-x="1058" d="M49 1015h146q0 -20 11.5 -38.5t24.5 -18.5q12 0 24 18t12 39h134l1 -24q0 -2 0.5 -6.5t0.5 -6.5q0 -25 -21 -97l-132 -397v-122q0 -94 70.5 -160.5t170.5 -66.5h62q100 0 171 66.5t71 160.5v653h145v-653q0 -155 -114 -264t-273 -109h-62q-159 0 -272.5 108.5 t-113.5 264.5v131l104 320q-65 9 -112.5 66.5t-47.5 135.5z" />
<glyph unicode="&#xe04;" horiz-adv-x="1098" d="M114 0v654q1 102 55.5 187.5t146.5 134t199 48.5h66q163 0 281 -108q120 -110 120 -265v-651h-147v651q0 92 -74 159t-180 67h-66q-108 0 -181.5 -67t-73.5 -159v-128q19 4 43 4h225v-99q0 -34 -96 -48h-129q-43 0 -43 -18v-362h-146z" />
<glyph unicode="&#xe05;" horiz-adv-x="1098" d="M114 0v667q0 117 73 212t190 139l171 -73q31 13 92 38.5t78 32.5q84 -30 144 -84q120 -110 120 -265v-667h-147v667q0 56 -31.5 107.5t-83.5 81.5q-27 -11 -86 -37t-86 -37l-171 74q-56 -31 -86.5 -80.5t-30.5 -108.5v-144q19 4 43 4h225v-99q0 -34 -96 -48h-129 q-43 0 -43 -18v-362h-146z" />
<glyph unicode="&#xe06;" horiz-adv-x="1043" d="M54 1015h148q0 -20 12 -38.5t25 -18.5t25 18.5t12 38.5h134q1 -12 1.5 -21t1 -12t0.5 -5q0 -18 -25 -108l-130 -383v-242q195 -110 351 -110q84 0 128 30.5t46 76.5v773h146v-779q-1 -111 -92 -179t-228 -68q-167 0 -355 92q-14 -80 -44 -80h-99v493l107 320 q-66 9 -114 65.5t-50 136.5z" />
<glyph unicode="&#xe07;" horiz-adv-x="849" d="M21 645h160l245 -496q75 25 120.5 82t45.5 128v655h147v-655q0 -135 -96 -242t-230 -124l-70 -1z" />
<glyph unicode="&#xe08;" horiz-adv-x="936" d="M-5 936q224 88 399 88q184 0 303 -81q127 -88 127 -224v-350q0 -157 -118 -265t-283 -108h-85l-222 460h161l151 -314q104 2 177 69t73 158v350q0 63 -75 110.5t-209 47.5q-144 0 -339 -75z" />
<glyph unicode="&#xe09;" horiz-adv-x="1022" d="M80 936q229 88 400 88q185 0 302 -82q127 -88 127 -223v-719h-99q-26 0 -41 73q-174 -85 -336 -85q-143 0 -232 69t-89 183l-1 298h147v-298q0 -46 45 -76t130 -30q148 0 330 100v485q0 63 -74.5 110.5t-208.5 47.5q-145 0 -339 -75z" />
<glyph unicode="&#xe0a;" horiz-adv-x="1063" d="M108 354v129l105 361q-4 10 -23.5 17.5t-39.5 7.5v147q82 0 146 -52.5t65 -127.5l-108 -362v-120q0 -93 70.5 -160t170.5 -67h63q100 0 171 66.5t71 160.5l-1 265q0 33 -19.5 56t-52 34t-63 16t-65.5 5v147q25 0 47.5 3t52 15t50.5 32t35.5 58.5t14.5 89.5h146 q0 -174 -91 -265q91 -70 91 -191v-265q0 -155 -114 -264t-273 -109h-63q-159 0 -272.5 108.5t-113.5 264.5z" />
<glyph unicode="&#xe0b;" horiz-adv-x="1058" d="M50 1007h146q0 -20 11.5 -38.5t24.5 -18.5t24.5 18.5t11.5 38.5h115l11 -11q10 -12 10 -26q0 -22 -25 -111l-128 -384v-121q0 -94 70.5 -160.5t170.5 -66.5h63q99 0 169.5 66.5t70.5 160.5v263q0 109 -199 114v145q25 0 46.5 3t51.5 15t50.5 32t35.5 58.5t15 90.5h146 q0 -177 -92 -266q92 -68 92 -192l-1 -263q-1 -156 -113 -264.5t-272 -108.5h-63q-159 0 -272.5 108.5t-113.5 264.5v131l104 320q-65 9 -112.5 66t-47.5 136z" />
<glyph unicode="&#xe0c;" horiz-adv-x="1616" d="M122 0v941q216 83 388 83q187 0 309 -84.5t122 -220.5v-490q148 -96 262 -96q62 0 94.5 29t34.5 79v774h146v-775q0 -113 -76.5 -183.5t-198.5 -70.5q-125 0 -270 76q-13 -62 -40 -62h-99v719q0 64 -75 111t-209 47q-110 0 -242 -41v-836h-146z" />
<glyph unicode="&#xe0e;" horiz-adv-x="1045" d="M105 -338l52 136q201 -77 345 -77q132 0 207.5 47.5t75.5 110.5v840q0 63 -75.5 110.5t-207.5 47.5q-108 0 -243 -42v-835h-146v940q216 83 389 83q183 0 302 -81q127 -87 127 -223v-840q0 -136 -120.5 -220t-308.5 -84q-174 0 -397 87z" />
<glyph unicode="&#xe0f;" horiz-adv-x="1045" d="M66 -344q28 117 121.5 180.5t223.5 63.5q179 0 374 -104v923q0 63 -76 110.5t-208 47.5q-107 0 -242 -42v-835h-146v940q216 83 388 83q184 0 303 -81q127 -87 127 -223v-1120h-102q-234 155 -417 155q-84 0 -136.5 -37t-66.5 -95z" />
<glyph unicode="&#xe10;" horiz-adv-x="925" d="M10 850q59 80 149.5 126.5t188.5 46.5h65q98 0 186 -44q27 15 52 50t25 51h146q0 -90 -53 -150v1q-21 -26 -45 -44q90 -101 90 -237v-281q0 -148 -107 -254t-262 -117l-116 -2l-221 460h159l152 -313q107 7 178 71.5t71 154.5v281q0 93 -74.5 160t-180.5 67h-65 q-69 0 -131.5 -38.5t-105.5 -102.5zM111 -374l1 98q0 35 96 49h380q43 0 43 45l146 9q0 -82 -57.5 -141.5t-131.5 -59.5h-477z" />
<glyph unicode="&#xe11;" horiz-adv-x="1173" d="M16 1014h146q0 -20 11.5 -38.5t25.5 -18.5q13 0 25 18t14 39l97 -1q10 0 22.5 -23.5t19.5 -56.5q190 93 355 93q140 0 230 -69t90 -183v-774h-146l1 773q-2 46 -46.5 76.5t-128.5 30.5q-157 0 -350 -110v-770h-146v815q-22 -4 -37 -4q-71 0 -127 59.5t-56 143.5z" />
<glyph unicode="&#xe12;" horiz-adv-x="1667" d="M122 314v352q0 116 74 211t190 138l170 -72q23 9 82 34.5t88 36.5q118 -43 191 -137t73 -211v-439q148 -95 262 -95q62 0 94 28.5t34 78.5v774h146v-773q0 -112 -76 -183t-198 -71q-127 0 -269 77q-13 -63 -40 -63h-99v666q0 56 -32 107.5t-84 80.5q-26 -11 -85 -36 t-87 -37l-171 72q-53 -30 -84.5 -80t-31.5 -107v-352q0 -52 21.5 -89t59 -56t77.5 -27t87 -8v-146q-34 0 -67.5 3.5t-73 13.5t-74.5 25.5t-68 41t-56.5 58.5t-38 80t-14.5 104z" />
<glyph unicode="&#xe13;" horiz-adv-x="1615" d="M122 0v940q216 83 388 83q188 0 309 -84.5t121 -219.5v-479q0 -49 32.5 -78t95.5 -29q117 0 262 95v785h147v-1013h-103q-25 4 -37 63q-143 -76 -269 -76q-122 0 -198 70t-76 183v479q0 63 -76 110.5t-208 47.5q-107 0 -242 -42v-835h-146z" />
<glyph unicode="&#xe14;" horiz-adv-x="1093" d="M109 315v338q1 103 56 188.5t146.5 133.5t198.5 48h65q163 0 281 -108q56 -51 88 -119.5t32 -145.5v-650h-145v650q0 92 -75 159.5t-181 67.5h-65q-107 0 -181 -67.5t-74 -159.5v-335q0 -53 22.5 -90.5t61 -56t77.5 -26t84 -7.5v-147q-49 1 -96.5 8t-103 29t-96 56.5 t-68 95t-27.5 138.5z" />
<glyph unicode="&#xe15;" horiz-adv-x="1092" d="M109 315v352q0 117 72 210.5t191 139.5l170 -73q33 14 172 73q85 -34 142 -85q120 -110 120 -265v-667h-146v667q0 59 -30.5 108.5t-85.5 79.5q-27 -11 -86 -37t-86 -37l-171 74q-54 -29 -85 -80t-31 -108v-352q0 -52 22 -89.5t59.5 -56t77 -26.5t86.5 -8v-147 q-49 1 -95.5 8t-102.5 28.5t-96.5 56t-68.5 95t-28 139.5z" />
<glyph unicode="&#xe16;" horiz-adv-x="1044" d="M112 315v625q217 83 389 83q184 0 303 -81q127 -85 127 -223v-719h-146v719q0 63 -75.5 110.5t-208.5 47.5q-107 0 -242 -42v-520q0 -107 38.5 -143.5t127.5 -36.5v-146q-153 0 -233 78.5t-80 247.5z" />
<glyph unicode="&#xe17;" horiz-adv-x="1043" d="M113 0v1014h99q30 0 42 -80q192 93 356 93q141 0 231 -69t90 -183v-775h-147v775q0 46 -44.5 76t-129.5 30q-156 0 -351 -111v-770h-146z" />
<glyph unicode="&#x2219;" horiz-adv-x="1043" d="M113 0v1014h99q30 0 42 -80q192 93 356 93q141 0 231 -69t90 -183v-775h-147v775q0 46 -44.5 76t-129.5 30q-156 0 -351 -111v-770h-146z" />
<glyph unicode="&#xe18;" horiz-adv-x="982" d="M106 736q3 81 39 140t95.5 90.5t124.5 46t137 14.5q181 0 354 -78l-59 -133q-143 65 -295 65q-106 0 -173.5 -39.5t-76.5 -110.5q1 -20 8.5 -35t17.5 -23.5t30.5 -15t34 -9.5t40.5 -7q18 -3 72.5 -14.5t91.5 -15.5q34 -4 53.5 -7t57.5 -12.5t62.5 -20.5t55.5 -31.5 t49.5 -46t31.5 -64t13 -84.5l1 -7q-2 -82 -6.5 -130.5t-20.5 -90.5t-37.5 -62t-66.5 -34.5t-98 -18t-141 -3.5q-164 0 -248.5 21t-113 62t-28.5 119q0 29 8.5 87t10.5 83h124v-157q4 -51 45.5 -61.5t240.5 -10.5q132 0 162 15q9 5 15.5 55t6.5 129q0 26 -11.5 46t-28 32 t-43.5 21.5t-47.5 13.5t-51.5 9q-14 2 -35 5.5t-38 6t-36 4.5q-32 3 -54.5 6t-59 11t-63 18.5t-57 30.5t-49 45t-31.5 62.5t-13 83.5z" />
<glyph unicode="&#xe19;" horiz-adv-x="1044" d="M113 239v775h147v-775q0 -45 44.5 -75t129.5 -30q155 0 351 110v770h146v-1014h-99q-29 0 -44 80q-187 -92 -354 -92q-141 0 -231 69t-90 182z" />
<glyph unicode="&#xe1a;" horiz-adv-x="1075" d="M114 320v695h147v-695q0 -74 70 -128.5t174 -54.5h64q103 0 173.5 54.5t70.5 128.5v695h147v-695q0 -140 -116 -235t-275 -95h-64q-159 0 -275 95t-116 235z" />
<glyph unicode="&#xe1b;" horiz-adv-x="1074" d="M114 320v695h146v-695q0 -74 70 -128.5t174 -54.5h65q103 0 172.5 54.5t71.5 129.5v941h146v-942q0 -140 -116 -235t-274 -95h-65q-159 0 -274.5 94.5t-115.5 235.5z" />
<glyph unicode="&#xe1c;" horiz-adv-x="1094" d="M113 348v492q-2 75 59 124t151 51v-146q-22 0 -43 -9.5t-21 -19.5v-492q2 -126 117 -189q76 34 171 75l170 -74q53 32 85 82t32 106v666h146v-666q0 -117 -74 -212t-189 -138l-171 73q-53 -22 -170 -72q-116 42 -189.5 137t-73.5 212z" />
<glyph unicode="&#xe1d;" horiz-adv-x="1093" d="M112 348v492q0 72 58 125q55 50 152 50v-146q-41 0 -54 -11q-10 -12 -10 -18v-492q2 -91 73 -158q25 -21 42 -30q29 13 88.5 38t84.5 36l172 -75q21 12 43 31q72 69 72 158v913h146v-913q0 -76 -32 -145t-87 -120q-58 -52 -144 -85l-171 73q-53 -22 -170 -72 q-81 30 -142 84q-56 52 -88.5 121t-32.5 144z" />
<glyph unicode="&#xe1e;" horiz-adv-x="1138" d="M115 222v792h146v-792q0 -34 34.5 -61.5t79.5 -27.5h36q55 0 89 39q-6 24 -6 50v366h147v-366q0 -37 29 -63t70 -26h35q41 0 70 26t29 63v792h147v-792q0 -98 -72.5 -166.5t-173.5 -68.5h-35q-38 0 -83.5 15t-75.5 38q-32 -25 -79 -39t-91 -14h-36q-108 0 -184 68 t-76 167z" />
<glyph unicode="&#xe1f;" horiz-adv-x="1138" d="M115 220v793h147v-793q0 -37 28.5 -62.5t69.5 -25.5h35q41 0 70.5 25.5t29.5 62.5v367h146v-367q0 -26 -6 -49q34 -39 89 -39h37q45 0 79.5 27t34.5 61v1040h146v-1040q0 -98 -76.5 -166.5t-183.5 -68.5h-37q-99 0 -167 55q-29 -26 -74.5 -40.5t-87.5 -14.5h-35 q-99 0 -172 69t-73 166z" />
<glyph unicode="&#xe20;" horiz-adv-x="1048" d="M47 -11v148q23 0 44 9.5t21 19.5v785q216 85 393 85q186 0 307 -83q128 -87 128 -226v-727h-147v727q-1 64 -77 112t-211 48q-118 0 -245 -41v-680q0 -74 -65 -125.5t-148 -51.5z" />
<glyph unicode="&#xe21;" horiz-adv-x="1044" d="M112 0v1024h148v-778q195 -111 354 -111q84 0 129 30t47 77v782h147v-782q0 -114 -90.5 -184t-232.5 -70q-169 0 -359 93q-12 -81 -44 -81h-99z" />
<glyph unicode="&#xe22;" horiz-adv-x="1073" d="M104 321v37q0 59 18.5 113t52.5 82q-71 78 -71 201v271h100q35 0 49 -111v-160q0 -64 37 -100t100 -36v-148q-138 0 -138 -112v-37q0 -74 72 -129.5t176 -55.5h64q106 0 177.5 55.5t71.5 129.5v704h147v-704q0 -141 -117 -237t-279 -96h-64q-162 0 -279 96t-117 237z" />
<glyph unicode="&#xe23;" horiz-adv-x="921" d="M62 738q3 67 29 120t65.5 85t93 52.5t105 28.5t108.5 9q181 -2 357 -77l-58 -136q-144 64 -299 64q-114 0 -182.5 -37t-69.5 -114q0 -35 17.5 -60.5t50.5 -40.5t61.5 -23t71.5 -16t59 -12q9 -2 39 -7t53 -9.5t59 -15.5t63 -24.5t57 -36t49 -50t32 -68t13 -88.5l-1 -1 q-3 -66 -28.5 -118t-64.5 -84t-92 -52.5t-105.5 -28.5t-109.5 -8q-183 0 -357 77l60 134q144 -64 297 -64q108 0 176 40t77 111q0 17 -5 31.5t-11.5 26t-19.5 21.5t-23 17t-29 14t-30.5 11t-33.5 9t-33 7t-34 6.5t-31 5.5q-11 4 -51.5 11t-78 15t-84.5 29t-81 49.5 t-57.5 79.5t-23.5 117z" />
<glyph unicode="&#xe24;" horiz-adv-x="1048" d="M112 315v634q220 84 394 84q185 0 306 -82q129 -87 129 -226v-1158h-148v1158q0 64 -77 112t-210 48q-108 0 -246 -41v-528q0 -109 39.5 -145t128.5 -36v-148q-154 0 -234 77t-82 251z" />
<glyph unicode="&#xe25;" horiz-adv-x="1034" d="M76 325q0 144 100 231t259 87q156 0 344 -88v172q0 63 -76 111t-211 48q-147 0 -349 -77l-54 138q229 88 403 88q184 0 306 -82q129 -85 129 -226v-727h-148v387q-188 108 -344 108q-101 0 -156 -45t-55 -125q0 -58 5.5 -89.5t26.5 -56.5t60.5 -34t107.5 -9v-147 q-103 0 -171 20t-107 64t-54.5 103.5t-15.5 148.5z" />
<glyph unicode="&#xe26;" horiz-adv-x="1047" d="M46 -13v148q23 0 44 9.5t21 20.5v784q217 84 393 84q186 0 307 -82q128 -87 128 -225v-1159h-148v1159q0 64 -77 111.5t-210 47.5q-117 0 -246 -41v-679q0 -75 -65 -126.5t-147 -51.5z" />
<glyph unicode="&#xe27;" horiz-adv-x="961" d="M24 944q225 89 402 89q184 0 306 -82q129 -88 129 -226v-362q0 -157 -119.5 -267t-285.5 -110h-67q-99 0 -189.5 47t-152.5 128l103 115q42 -66 105.5 -104t133.5 -38h67q107 0 182 67.5t75 161.5v362q0 63 -76 111t-211 48q-152 0 -348 -78z" />
<glyph unicode="&#xe28;" horiz-adv-x="1089" d="M103 0v661q1 103 56 189t148 135.5t202 49.5h66q93 0 178 -38q23 6 55.5 45t32.5 61h148q0 -58 -30 -110.5t-77 -89.5q98 -108 98 -245v-658h-147v658q0 93 -75 160.5t-183 67.5h-66q-109 0 -183.5 -67t-74.5 -161v-130q22 5 44 5h227v-99q0 -37 -98 -49h-129 q-44 0 -44 -16v-369h-148z" />
<glyph unicode="&#xe29;" horiz-adv-x="1077" d="M113 320v705h148v-705q0 -74 71.5 -129.5t175.5 -55.5h65q106 0 177 55t71 130v154h-313v99q0 37 98 49h215v403h148v-403h49v-148h-49v-154q0 -142 -117.5 -237.5t-278.5 -95.5h-65q-104 0 -194 42.5t-145.5 119.5t-55.5 171z" />
<glyph unicode="&#xe2a;" horiz-adv-x="1034" d="M76 325q0 145 100 231.5t260 86.5t343 -88v172q0 64 -76 112t-210 48q-144 0 -349 -78l-55 138q228 88 404 88q115 0 220 -39q24 3 55 46t31 61h147q0 -65 -17 -97q-27 -53 -80 -96q78 -72 78 -183v-727h-148v387q-186 108 -343 108q-101 0 -156.5 -45.5t-55.5 -124.5 q0 -58 6 -90t26.5 -56.5t60 -33.5t106.5 -9v-147q-197 0 -272 78t-75 258z" />
<glyph unicode="&#xe2b;" horiz-adv-x="1046" d="M112 0v1026h99q36 0 49 -113v-239q135 67 275 87h3t2.5 0.5t3.5 0.5t7 0.5t12 1.5q119 16 173.5 74t54.5 186h148q0 -219 -109 -315q51 -32 80 -84t29 -114v-511h-148v511q0 47 -45.5 77t-130.5 30q-158 0 -355 -111v-507h-148z" />
<glyph unicode="&#xe2c;" horiz-adv-x="1138" d="M113 225v800h147v-800q0 -37 30 -63.5t71 -26.5h35q41 0 70.5 26.5t29.5 63.5v369h148v-369q0 -18 -6 -50q30 -40 90 -40h37q45 0 80 28t35 62v501q0 33 -19 56.5t-51.5 35t-64 16.5t-67.5 5v148q202 0 202 173v115h148v-115q0 -93 -35 -163v-1q-22 -44 -57 -76 q92 -69 92 -193v-502q0 -99 -77 -168t-186 -69h-37q-101 0 -171 58q-73 -58 -161 -58h-35q-102 0 -175 69t-73 168z" />
<glyph unicode="&#xe2d;" horiz-adv-x="1027" d="M83 944q225 89 403 89q184 0 306 -82q128 -87 128 -226v-422q0 -89 -52 -162t-137.5 -113.5t-184.5 -40.5h-60q-153 0 -264 90.5t-111 225.5v240h146v-240q0 -67 66 -118t163 -51h60q96 0 161 50.5t65 118.5v422q0 64 -76 111.5t-210 47.5q-153 0 -349 -78z" />
<glyph unicode="&#xe2e;" horiz-adv-x="1027" d="M82 944q227 89 404 89q101 0 199 -31q37 14 65.5 41.5t21.5 56.5h148q0 -104 -91 -180q91 -81 91 -195v-423q0 -133 -111 -224.5t-263 -91.5h-60q-152 0 -263.5 91t-111.5 225v241h147v-240q2 -69 66.5 -119t161.5 -50h60q95 0 160.5 50.5t65.5 117.5v423q0 63 -75.5 111 t-210.5 48q-153 0 -349 -78z" />
<glyph unicode="&#xe2f;" horiz-adv-x="973" d="M74 786q0 147 147 288l103 -109q-102 -98 -102 -179q0 -49 33 -80q41 -37 125 -37q148 0 336 122v124q11 113 47 113h100v-905q-11 -113 -47 -113h-100v609q-176 -96 -336 -98q-144 0 -225 76h1q-82 73 -82 189z" />
<glyph unicode="&#xe30;" horiz-adv-x="574" d="M92 370h307q98 -16 98 -49v-99h-307q-97 11 -97 48zM92 803h307q98 -13 98 -49v-100h-307q-97 14 -97 49z" />
<glyph unicode="&#xe31;" d="M-611 1156v278h108q34 0 39 -82v-47l432 2v-151h-579z" />
<glyph unicode="&#xe32;" horiz-adv-x="836" d="M-8 940q210 97 366 97q166 0 271 -90t105 -223v-724h-148v724q0 67 -59.5 115.5t-168.5 48.5q-124 0 -305 -83z" />
<glyph unicode="&#xe33;" horiz-adv-x="847" d="M-477 1264q0 73 51.5 125t125.5 52q72 0 124.5 -52.5t52.5 -124.5q0 -74 -52 -125.5t-125 -51.5q-75 0 -126 51t-51 126zM-360 1264q0 -26 17.5 -44t42.5 -18t42.5 18t17.5 44q0 25 -17.5 42.5t-42.5 17.5q-26 0 -43 -17t-17 -43zM-2 940q210 97 366 97q166 0 271 -90 t105 -223v-724h-148v724q0 67 -59.5 115.5t-168.5 48.5q-124 0 -305 -83z" />
<glyph unicode="&#xe34;" d="M-917 1156v99q0 35 100 49h606q100 -14 100 -49v-99h-806z" />
<glyph unicode="&#xe35;" d="M-917 1156v99q0 35 97 49h564q14 72 45 72h100v-220h-806z" />
<glyph unicode="&#xe36;" d="M-916 1156v99q0 35 99 49h485q8 45 43 74t82 29q51 0 88.5 -37t37.5 -89q0 -51 -37.5 -88t-88.5 -37h-709z" />
<glyph unicode="&#xe37;" d="M-911 1156v98q0 19 23.5 30t73.5 18h327q13 72 43 72h99v-72h90q13 72 44 72h99v-218h-799z" />
<glyph unicode="&#xe38;" d="M-473 -140h194v-312h-144v123q1 9 4 24t3 17h-57v148z" />
<glyph unicode="&#xe39;" d="M-585 -135h185v-148q1 -13 29.5 -30.5t44.5 -17.5q17 0 46.5 18t29.5 34v144h138v-144q0 -80 -68.5 -129.5t-145.5 -49.5q-72 0 -139.5 45t-70.5 119q1 4 1 11h-50v148z" />
<glyph unicode="&#xe3a;" d="M-451 -254q0 48 32.5 81t80.5 33q47 0 81 -33.5t34 -80.5q0 -48 -34 -81t-81 -33q-48 0 -80.5 33t-32.5 81z" />
<glyph unicode="&#xe3b;" />
<glyph unicode="&#xe3c;" />
<glyph unicode="&#xe3d;" />
<glyph unicode="&#xe3e;" />
<glyph unicode="&#xe3f;" horiz-adv-x="1261" d="M149 1v1151h366v136h147v-136q82 -2 133 -7q136 -17 194.5 -91t58.5 -221q0 -129 -58 -194q60 -37 84 -104t24 -170q0 -70 -9.5 -124t-26.5 -92.5t-46.5 -65t-61.5 -43t-81.5 -25t-96 -12t-114.5 -3.5v-120h-147v120q-59 0 -185 0.5t-181 0.5zM296 148q57 1 158.5 2.5 t185 2.5t157.5 1q59 7 89.5 23t47.5 60.5t17 126.5v2q0 27 -1.5 47.5t-7 38t-11 30t-18.5 23t-23.5 17t-32.5 11t-39.5 7t-50.5 3.5t-58.5 1.5t-70.5 0.5h-342v-397zM296 693q62 0 186 -0.5t187 -0.5q138 0 192 30q20 11 29.5 35.5t9.5 76.5q0 31 -2.5 53.5t-10 41t-17 30.5 t-29 21t-38.5 14t-54 8t-68 3.5t-86 0.5h-299v-313z" />
<glyph unicode="&#xe40;" horiz-adv-x="377" d="M124 0v1015h149v-1015h-149z" />
<glyph unicode="&#xe41;" horiz-adv-x="702" d="M121 0v1015h148v-1015h-148zM450 0v1015h149v-1015h-149z" />
<glyph unicode="&#xe42;" horiz-adv-x="417" d="M4 1384v139h482v-149h-244q32 -45 49 -107t17 -120v-1146h-149l-1 1162q0 144 -154 221z" />
<glyph unicode="&#xe43;" horiz-adv-x="509" d="M-7 1270q0 110 71.5 185.5t170.5 75.5h34q99 0 170 -66q72 -67 72 -166v-98l-116 -222v-979h-148v996l114 226v77q0 34 -26.5 58.5t-65.5 24.5h-34q-39 0 -65.5 -33t-26.5 -79h-150z" />
<glyph unicode="&#xe44;" horiz-adv-x="470" d="M-46 1518h150q0 -45 26.5 -78t66.5 -33h33q29 0 53.5 12.5t27.5 32.5l15 66h136v-36q0 -34 -13 -87l-92 -410v-985h-150v992l62 268q-19 -3 -39 -3h-33q-100 0 -171.5 75.5t-71.5 185.5z" />
<glyph unicode="&#xe45;" horiz-adv-x="864" d="M22 927q205 96 362 96q166 0 269.5 -89.5t103.5 -219.5v-1142h-146v1141q-2 67 -60.5 115t-166.5 48q-123 0 -300 -83z" />
<glyph unicode="&#xe46;" horiz-adv-x="1102" d="M103 579v87q0 117 74.5 213t190.5 139l138 -72q27 13 78.5 40t59.5 31q87 -31 145 -85q120 -110 120 -266v-1094h-146v1094q0 57 -31 106t-85 82q-25 -13 -76 -39.5t-65 -33.5l-141 74q-53 -34 -84 -83.5t-31 -105.5v-184h-100q-34 0 -47 97z" />
<glyph unicode="&#xe47;" d="M-679 1279v82q0 80 54.5 126t125.5 48h456v-147h-455q-16 0 -26 -7q-8 -8 -9 -23v-78q1 -30 43 -30q15 0 25 4q2 30 2 32h147v-37q10 -4 22 -4q20 0 34 16.5t15 49.5h145q0 -99 -59 -155.5t-135 -56.5q-58 0 -100 26q-41 -21 -96 -21q-75 0 -132 45.5t-57 129.5z" />
<glyph unicode="&#xe48;" d="M-255 1496v331h147v-331h-147z" />
<glyph unicode="&#xe49;" d="M-661 1630v146h192v-130h435v-146h-580v108q1 8 3 22h-50z" />
<glyph unicode="&#xe4a;" d="M-758 1563v20q0 75 52.5 142.5t122.5 84.5l102 -39q2 1 97 42q26 -8 27 -9q58 -24 97.5 -69.5t52.5 -102.5q25 24 25 57v119h135v-119q0 -74 -47 -132t-131 -89h-69q-35 0 -46 92v23q0 51 -41 78q-82 -35 -99 -42l-97 42q-42 -31 -42 -78v-115h-94q-15 0 -27.5 25.5 t-17.5 69.5z" />
<glyph unicode="&#xe4b;" d="M-452 1598v147h102v101h109q14 0 24.5 -22t13.5 -59v-20h102v-147h-102v-102h-147v102h-102z" />
<glyph unicode="&#xe4c;" d="M-566 1439v216l542 45l12 -147l-408 -34q-3 -41 -11.5 -60.5t-27.5 -19.5h-107z" />
<glyph unicode="&#xe4d;" d="M-503 1270q0 73 51.5 125t125.5 52q72 0 124.5 -52.5t52.5 -124.5q0 -74 -52 -125.5t-125 -51.5q-75 0 -126 51t-51 126zM-386 1270q0 -26 17.5 -44t42.5 -18t42.5 18t17.5 44q0 25 -17.5 42.5t-42.5 17.5q-26 0 -43 -17t-17 -43z" />
<glyph unicode="&#xe4e;" d="M-541 1270q0 85 89 142q-13 22 -13 50q0 77 86.5 134.5t190.5 57.5q70 0 182 -40v-129q-35 9 -72 21t-59.5 17.5t-50.5 5.5q-48 0 -100 -21.5t-52 -45.5l54 -13l46 -15v-106h-49q-4 0 -18.5 1t-17.5 1q-28 0 -59.5 -22t-31.5 -38q0 -18 19.5 -30t49.5 -12q42 0 64 17.5 t45 60.5h128l-38 -96q-56 -107 -199 -107q-85 0 -139.5 48t-54.5 119z" />
<glyph unicode="&#xe4f;" horiz-adv-x="862" d="M126 536q0 122 86 207t206 85q119 0 206 -84.5t87 -207.5q0 -122 -85.5 -207.5t-207.5 -85.5q-121 0 -206.5 86.5t-85.5 206.5z" />
<glyph unicode="&#xe50;" horiz-adv-x="1103" d="M126 313v296q0 86 55.5 155.5t145 106.5t192.5 37h63q156 0 268 -79q57 -40 90.5 -97t33.5 -123v-296q0 -129 -116.5 -214t-275.5 -85h-63q-103 0 -192.5 37t-145 106.5t-55.5 155.5zM273 313q0 -60 70.5 -106.5t175.5 -46.5h63q104 0 175 47t71 106v296q0 59 -71 105.5 t-175 46.5h-63q-105 0 -175.5 -46t-70.5 -106v-296z" />
<glyph unicode="&#xe51;" horiz-adv-x="1108" d="M131 392v221q0 129 116.5 214t275.5 85h64q154 0 267 -79q57 -40 91 -97t34 -123v-297q0 -130 -125.5 -216t-309.5 -86q-183 0 -394 99l62 132q184 -85 332 -85q131 0 210 48.5t79 107.5v297q0 59 -71 105.5t-175 46.5h-64q-104 0 -175 -46.5t-71 -105.5v-75h72v-99 q0 -36 -98 -47h-120z" />
<glyph unicode="&#xe52;" horiz-adv-x="1278" d="M132 345v697h99q20 0 30.5 -27.5t17.5 -84.5v-585q0 -74 70.5 -129.5t174.5 -55.5h223q104 0 174.5 55.5t70.5 129.5q0 42 0.5 128t0.5 129q0 44 -39 83q-4 4 -16 10q-30 -8 -91.5 -23.5t-91.5 -22.5l-180 46q-52 -37 -52 -93v-124h-148v124q0 84 57 158t133 93l191 -45 q30 8 93.5 24t93.5 23q67 -26 109 -61l1 -1q86 -79 86 -191v-257q0 -141 -116 -236t-276 -95h-223q-160 0 -276 95t-116 236z" />
<glyph unicode="&#xe53;" horiz-adv-x="1226" d="M127 483q-1 123 79 230t211 155l194 -81q71 31 190 81q94 -34 158 -90v-1q63 -59 97.5 -136t34.5 -158v-455h-147v455q0 67 -36.5 125t-103.5 96q-162 -68 -195 -82l-196 83q-66 -37 -101.5 -95.5t-36.5 -126.5q0 -19 -0.5 -56t-0.5 -56q-1 -61 24.5 -105.5t69 -66.5 t90 -32t99.5 -10v-146q-57 0 -111 9t-113 34t-103 63.5t-72.5 104t-29.5 149.5z" />
<glyph unicode="&#xe54;" horiz-adv-x="1098" d="M115 345v170q0 139 116 235.5t276 96.5h168q104 0 174.5 54.5t70.5 128.5v100h147v-100q0 -139 -116.5 -234.5t-275.5 -95.5h-168q-109 0 -179 -59q-67 -55 -67 -126v-170q0 -73 71.5 -129t174.5 -56l32 1q111 0 159 34q-20 68 -20 188h147q0 -67 6.5 -104.5t27.5 -64.5 t59.5 -36.5t104.5 -9.5v-148q-171 3 -242 53q-88 -59 -242 -59h-32q-161 0 -276.5 95t-115.5 236z" />
<glyph unicode="&#xe55;" horiz-adv-x="1098" d="M115 345v171q0 126 94 215.5t232 109.5q-5 22 -5 43q0 72 51.5 124t125.5 52q73 0 125 -52t52 -124v-16q62 23 96 66.5t34 95.5v100h147v-100q0 -140 -116.5 -235t-274.5 -95h-169q-107 0 -179 -59q-66 -55 -66 -125v-171q0 -74 70.5 -129t174.5 -55h32q117 0 159 34 q-19 65 -19 188h146q0 -66 6 -102.5t27 -64.5t59.5 -38t105.5 -10v-146q-170 0 -243 51q-91 -59 -241 -59h-32q-159 0 -275.5 95.5t-116.5 235.5zM549 886q0 -26 19.5 -45t45.5 -19t45 19t19 45t-19 45.5t-45 19.5t-45.5 -19.5t-19.5 -45.5z" />
<glyph unicode="&#xe56;" horiz-adv-x="1092" d="M39 1024h159l76 -156q141 45 259 45q178 0 306.5 -85t129.5 -219l1 -296q0 -86 -56 -155.5t-145 -106.5t-191 -37h-64q-102 0 -191.5 37t-145 106.5t-55.5 155.5v124h146v-124q0 -60 71 -106t175 -46h64q104 0 174.5 46t70.5 106l-1 296q0 60 -80 108.5t-209 48.5 q-151 0 -331 -85z" />
<glyph unicode="&#xe57;" horiz-adv-x="1466" d="M114 482q-1 124 78 230t211 157l194 -83q119 53 193 83q133 -51 210.5 -156.5t77.5 -230.5v-307q38 6 57.5 21t29 52.5t9.5 109.5v574q11 112 48 112h99v-705q-1 -69 -12.5 -121t-33.5 -85.5t-48 -55t-64.5 -32.5t-74 -14.5t-84.5 -3.5h-73v455q0 67 -36.5 126t-103.5 97 q-36 -15 -106.5 -45.5t-87.5 -37.5l-196 83q-68 -37 -103 -95.5t-36 -127.5q0 -18 -0.5 -55t-0.5 -56q-1 -62 25 -106.5t70 -66.5t90 -31.5t98 -9.5v-147q-53 0 -104.5 8t-112 32t-105.5 62t-75.5 105t-31.5 154z" />
<glyph unicode="&#xe58;" horiz-adv-x="1155" d="M117 250v250q0 140 117 235.5t276 95.5h168q102 0 172.5 55t72.5 130v98h146v-99q0 -141 -116 -236t-275 -95h-168q-108 0 -180 -59q-66 -55 -66 -125v-250q0 -37 29 -63.5t70 -26.5h35q41 0 70.5 27t29.5 63v81h146v-81q0 -25 -6 -49q32 -41 89 -41h37q45 0 79 27.5 t34 62.5v192h147v-192q0 -99 -76.5 -167.5t-183.5 -68.5h-37q-42 0 -91.5 15t-80.5 41q-68 -56 -157 -56h-35q-101 0 -173.5 68t-72.5 168z" />
<glyph unicode="&#xe59;" horiz-adv-x="1079" d="M111 522q0 92 55 168.5t145 119t193 42.5h167q104 0 175 55.5t71 129.5v99h147v-99q0 -109 -71.5 -191.5t-184.5 -118.5q90 -108 90 -273q0 -150 28 -218.5t89 -76.5l-20 -146q-75 11 -125 49t-75 101t-34 129.5t-9 157.5q0 65 -18.5 114.5t-49 78t-64 43.5t-69.5 19h-47 q-104 0 -175.5 -54.5t-70.5 -128.5l1 -145q1 -119 51.5 -161.5t147.5 -42.5h183v-145h-229q-297 23 -300 349z" />
<glyph unicode="&#xe5a;" horiz-adv-x="1235" d="M56 779q0 144 146 284l101 -107q-100 -97 -100 -177q0 -50 33 -80q38 -36 113 -36q138 0 323 121v122q11 112 47 112h99v-897q-13 -112 -48 -112h-98v604q-172 -95 -323 -97q-133 0 -213 75h1q-81 72 -81 188zM934 9v897q13 112 48 112h99v-897q-13 -112 -48 -112h-99z " />
<glyph unicode="&#xe5b;" horiz-adv-x="2147" d="M137 526q0 158 83 254.5t222 96.5q115 0 182.5 -65.5t67.5 -171.5q0 -98 -60 -158q-52 -47 -120 -47q-61 0 -101 37t-40 90q0 51 39.5 88t101.5 37q48 0 80 -23q0 67 -42.5 106.5t-107.5 39.5q-92 0 -151.5 -71.5t-59.5 -185.5q0 -145 76 -231t196 -86q139 0 232.5 119.5 t93.5 305.5v26l-3 39l46 44l153 -252l109 238l106 -210l96 172l107 -170l95 129l96 -109l31 46h350l-74 -68h-218l-92 -88l-87 86l-106 -143l-96 147l-114 -188l-89 190l-99 -217l-132 211q-30 -173 -142.5 -276t-262.5 -103t-254 101.5t-112 259.5zM448 562 q0 -28 17.5 -45.5t43.5 -17.5q30 0 47.5 17.5t17.5 45.5t-18 45.5t-47 17.5q-26 0 -43.5 -18t-17.5 -45z" />
<glyph unicode="&#x2000;" horiz-adv-x="923" />
<glyph unicode="&#x2001;" horiz-adv-x="1846" />
<glyph unicode="&#x2002;" horiz-adv-x="923" />
<glyph unicode="&#x2003;" horiz-adv-x="1846" />
<glyph unicode="&#x2004;" horiz-adv-x="615" />
<glyph unicode="&#x2005;" horiz-adv-x="461" />
<glyph unicode="&#x2006;" horiz-adv-x="307" />
<glyph unicode="&#x2007;" horiz-adv-x="307" />
<glyph unicode="&#x2008;" horiz-adv-x="230" />
<glyph unicode="&#x2009;" horiz-adv-x="369" />
<glyph unicode="&#x200a;" horiz-adv-x="102" />
<glyph unicode="&#x200b;" />
<glyph unicode="&#x2010;" horiz-adv-x="1063" d="M110 502v147h833v-147h-833z" />
<glyph unicode="&#x2011;" horiz-adv-x="1063" d="M110 502v147h833v-147h-833z" />
<glyph unicode="&#x2012;" horiz-adv-x="1063" d="M110 502v147h833v-147h-833z" />
<glyph unicode="&#x2013;" horiz-adv-x="1043" d="M101 502v147h833v-147h-833z" />
<glyph unicode="&#x2014;" horiz-adv-x="1302" d="M113 502v147h1050v-147h-1050z" />
<glyph unicode="&#x2018;" horiz-adv-x="311" d="M75 1314h157l-8 -400h-137z" />
<glyph unicode="&#x2019;" horiz-adv-x="321" d="M83 1314h157l-8 -400h-137z" />
<glyph unicode="&#x201a;" d="M-933 1145v98q0 35 96 48h389q13 72 44 72h99v-218h-628z" />
<glyph unicode="&#xf702;" d="M-933 1145v98q0 35 96 48h389q13 72 44 72h99v-218h-628z" />
<glyph unicode="&#x201e;" d="M-933 1145v98q0 19 23.5 30t73.5 18h166q14 72 43 72h99v-72h81q13 72 44 72h99v-218h-629z" />
<glyph unicode="&#xf704;" d="M-933 1145v98q0 19 23.5 30t73.5 18h166q14 72 43 72h99v-72h81q13 72 44 72h99v-218h-629z" />
<glyph unicode="&#x2020;" d="M-522 1185v332h147v-332h-147z" />
<glyph unicode="&#xf705;" d="M-522 1185v332h147v-332h-147z" />
<glyph unicode="&#x2021;" d="M-851 1335v146h192v-130h341v-146h-486v108q1 8 3 22h-50z" />
<glyph unicode="&#xf706;" d="M-851 1335v146h192v-130h341v-146h-486v108q1 8 3 22h-50z" />
<glyph unicode="&#x2022;" horiz-adv-x="705" d="M156 571q0 80 59 138.5t139 58.5q82 0 140 -58t58 -139t-58 -139.5t-140 -58.5q-81 0 -139.5 58t-58.5 140z" />
<glyph unicode="&#x2026;" horiz-adv-x="1334" d="M166 111q0 43 29.5 72.5t71.5 29.5q43 0 72 -29.5t29 -72.5q0 -42 -29.5 -72t-71.5 -30t-71.5 30t-29.5 72zM564 111q0 43 29.5 72.5t71.5 29.5q43 0 72 -29.5t29 -72.5q0 -42 -29.5 -72t-71.5 -30t-71.5 30t-29.5 72zM961 111q0 43 30 72.5t72 29.5q43 0 72 -29.5 t29 -72.5q0 -42 -29.5 -72t-71.5 -30t-72 30t-30 72z" />
<glyph unicode="&#x202f;" horiz-adv-x="369" />
<glyph unicode="&#x2030;" d="M-670 1277v147h102v102h109q14 0 24.5 -22t13.5 -59v-21h102v-147h-102v-101h-147v101h-102z" />
<glyph unicode="&#xf708;" d="M-670 1277v147h102v102h109q14 0 24.5 -22t13.5 -59v-21h102v-147h-102v-101h-147v101h-102z" />
<glyph unicode="&#x2039;" d="M-256 1185v332h147v-332h-147z" />
<glyph unicode="&#xf70a;" d="M-256 1185v332h147v-332h-147z" />
<glyph unicode="&#x203a;" d="M-452 1496v331h147v-331h-147z" />
<glyph unicode="&#xf713;" d="M-452 1496v331h147v-331h-147z" />
<glyph unicode="&#x205f;" horiz-adv-x="461" />
<glyph unicode="&#x20ac;" horiz-adv-x="925" d="M10 850q59 80 149.5 126.5t188.5 46.5h65q98 0 186 -44q27 15 52 50t25 51h146q0 -90 -53 -150v1q-21 -26 -45 -44q90 -101 90 -237v-281q0 -148 -107 -254t-262 -117l-116 -2l-221 460h159l152 -313q107 7 178 71.5t71 154.5v281q0 93 -74.5 160t-180.5 67h-65 q-69 0 -131.5 -38.5t-105.5 -102.5z" />
<glyph unicode="&#xf700;" horiz-adv-x="925" d="M10 850q59 80 149.5 126.5t188.5 46.5h65q98 0 186 -44q27 15 52 50t25 51h146q0 -90 -53 -150v1q-21 -26 -45 -44q90 -101 90 -237v-281q0 -148 -107 -254t-262 -117l-116 -2l-221 460h159l152 -313q107 7 178 71.5t71 154.5v281q0 93 -74.5 160t-180.5 67h-65 q-69 0 -131.5 -38.5t-105.5 -102.5z" />
<glyph unicode="&#x2122;" d="M-666 1213q0 73 51.5 125t125.5 52q72 0 124.5 -52.5t52.5 -124.5q0 -74 -52 -125.5t-125 -51.5q-75 0 -126 51t-51 126zM-549 1213q0 -26 17.5 -44t42.5 -18t42.5 18t17.5 44q0 25 -17.5 42.5t-42.5 17.5t-42.5 -17.5t-17.5 -42.5z" />
<glyph unicode="&#xf711;" d="M-666 1213q0 73 51.5 125t125.5 52q72 0 124.5 -52.5t52.5 -124.5q0 -74 -52 -125.5t-125 -51.5q-75 0 -126 51t-51 126zM-549 1213q0 -26 17.5 -44t42.5 -18t42.5 18t17.5 44q0 25 -17.5 42.5t-42.5 17.5t-42.5 -17.5t-17.5 -42.5z" />
<glyph unicode="&#x25cc;" horiz-adv-x="1082" d="M122 573q0 37 27.5 64t64.5 27q35 0 63 -27.5t28 -63.5q0 -41 -26.5 -68t-64.5 -27t-65 27t-27 68zM227 354q0 38 27 64.5t64 26.5q41 0 67 -26t26 -65q0 -38 -26.5 -64.5t-66.5 -26.5q-37 0 -64 27t-27 64zM227 788q0 43 26.5 68t64.5 25q42 0 67.5 -24.5t25.5 -68.5 q0 -39 -26 -65t-67 -26q-37 0 -64 26.5t-27 64.5zM445 249q0 39 26.5 65.5t65.5 26.5q37 0 64.5 -27t27.5 -65q0 -37 -27.5 -64t-64.5 -27q-39 0 -65.5 27t-26.5 64zM445 893q0 39 26.5 65.5t65.5 26.5q37 0 64.5 -27t27.5 -65t-27.5 -64t-64.5 -26q-39 0 -65.5 26t-26.5 64 zM661 354q0 38 27.5 64.5t64.5 26.5q36 0 64 -26.5t28 -64.5q0 -37 -26.5 -64t-65.5 -27q-37 0 -64.5 27t-27.5 64zM661 788q0 43 27 68t65 25q37 0 64.5 -25.5t27.5 -67.5q0 -38 -26.5 -64.5t-65.5 -26.5q-37 0 -64.5 26.5t-27.5 64.5zM765 573q0 37 27 64t64 27 q39 0 66 -27t27 -64q0 -43 -24.5 -69t-68.5 -26q-38 0 -64.5 27t-26.5 68z" />
<glyph unicode="&#x25fc;" horiz-adv-x="970" d="M0 0v970h970v-970h-970z" />
<glyph unicode="&#xf701;" d="M-933 1145v98q0 35 99 48h430q99 -13 99 -48v-98h-628z" />
<glyph unicode="&#xf70c;" d="M-758 1280v20q0 76 52.5 143t122.5 84l102 -39q53 24 97 43q26 -9 27 -10q58 -24 97.5 -69.5t52.5 -102.5q25 24 25 57v119h135v-119q0 -73 -47 -131.5t-131 -89.5h-69q-35 0 -46 92v23q0 51 -41 78q-6 -3 -99 -41l-97 41q-42 -30 -42 -78v-115h-94q-15 0 -27.5 25.5 t-17.5 69.5z" />
<glyph unicode="&#xf70e;" d="M-579 1185v216l542 45l12 -147l-408 -35q-3 -41 -11.5 -60t-27.5 -19h-107z" />
<glyph unicode="&#xf70f;" horiz-adv-x="1614" d="M122 0v940q216 83 388 83q187 0 308.5 -85t121.5 -219v-430q0 -63 49 -108t121 -45h49q72 0 121.5 45t49.5 108v725h146v-725q0 -125 -93.5 -212.5t-223.5 -87.5h-49q-129 0 -223 87.5t-94 212.5l1 429q-1 64 -76 111.5t-208 47.5q-106 0 -243 -42v-835h-145z" />
<glyph unicode="&#xf715;" d="M-811 1553v20q0 76 52.5 143t123.5 84l101 -38q2 1 97 42q26 -9 27 -10q58 -24 97.5 -69.5t52.5 -102.5q25 24 25 58v118h135v-118q0 -74 -46.5 -132.5t-131.5 -89.5h-69q-36 0 -45 93v22q0 50 -42 78q-6 -3 -99 -41l-97 41q-42 -30 -42 -78v-115h-93q-16 0 -28.5 25.5 t-17.5 69.5z" />
<glyph unicode="&#xf718;" d="M-470 -487h192v-309h-143v121q3 19 8 41h-57v147z" />
<glyph unicode="&#xf719;" d="M-601 -487h183v-146q1 -14 29.5 -31.5t44.5 -17.5t45.5 18.5t30.5 33.5v143h136v-143q0 -79 -68 -128.5t-144 -49.5q-45 0 -91 18t-81 57t-37 88q1 4 1 11h-49v147z" />
<glyph unicode="&#xf71a;" d="M-420 -596q0 45 31.5 77t76.5 32q44 0 76.5 -32t32.5 -77t-32.5 -77t-76.5 -32q-45 0 -76.5 32t-31.5 77z" />
<glyph horiz-adv-x="1942" d="M387 571q0 156 77 288.5t209.5 209.5t288.5 77q155 0 288 -76t211 -209t78 -290q0 -156 -76.5 -288.5t-209.5 -210t-291 -77.5q-156 0 -288 76t-209.5 209t-77.5 291zM395 -288q0 9 7.5 12.5t17 3.5t18.5 7.5t11 25.5l21 100h-18q-7 0 -12 5t-5 12q0 5 5 9.5t12 4.5h24 l5 24q5 26 23.5 42t46.5 16q6 0 10.5 -4.5t4.5 -10.5q0 -11 -7 -14t-16 -1.5t-18.5 -6t-13.5 -26.5l-3 -19h17q16 0 16 -14q0 -17 -16 -17h-22l-23 -106q-11 -59 -68 -59q-7 0 -12 4.5t-5 11.5zM491 571q0 -128 63.5 -236t172 -171t235.5 -63q126 0 234.5 62.5t172.5 171 t64 236.5q0 140 -77 258l-75 -326q-12 -67 -73.5 -120.5t-136.5 -53.5q-71 0 -123 55q-68 -55 -139 -55t-115.5 47t-44.5 111q0 16 24 132q-20 -7 -39.5 11.5t-19.5 40.5q0 59 89 59q38 0 65.5 -17t21.5 -54l-34 -156q-4 -27 10 -47.5t43 -20.5q37 0 68 28t40 62l33 157 q4 19 18.5 30.5t33.5 11.5q21 0 36.5 -16t15.5 -37q0 -2 -35 -168q-5 -27 9 -47.5t43 -20.5q34 0 68 27.5t41 62.5l91 401q-132 114 -309 114q-127 0 -235.5 -62.5t-172 -171t-63.5 -235.5zM534 -201q0 51 27.5 74t58.5 23q28 0 44 -15.5t16 -41.5q0 -5 -2 -23 q-19 -75 -84 -75q-32 0 -46 17t-14 41zM565 -205q0 -23 29 -23q40 0 54 51q5 17 -2.5 29.5t-25.5 12.5q-25 0 -40 -20.5t-15 -49.5zM680 -239l27 123q3 12 14 12q6 0 11 -4t5 -8h1q24 11 34 12q37 0 45 -26q4 -8 4 -20q0 -2 -0.5 -5t-0.5 -6l-18 -84q-5 -14 -16 -14 q-6 0 -10.5 5t-4.5 11q0 3 1 4l17 85q0 8 -1.5 12t-5 6t-3.5 3q-25 0 -49 -23l-20 -89q-2 -14 -16 -14q-6 0 -10 5t-4 11v4zM834 -122q0 14 16 14h22l11 52q0 12 15 12q6 0 10.5 -6t4.5 -13l-8 -45h19q6 0 11 -4.5t5 -9.5q0 -17 -16 -17h-26l-15 -60v-17q0 -12 6 -12 q2 0 7 1.5t7 1.5q16 0 16 -14q0 -18 -27 -18q-19 0 -30 12t-11 33q0 3 1.5 9.5t1.5 10.5l12 53h-16q-16 0 -16 17zM958 -201q0 47 25 72t57 25q34 0 56 -29q0 -1 1 -4l1 -3q0 -6 -4 -11t-10 -5t-17 11.5t-27 11.5q-18 0 -34.5 -18.5t-16.5 -49.5q0 -27 30 -27q8 0 19.5 6 t16.5 6q15 0 15 -17q0 -11 -17.5 -18.5t-33.5 -7.5q-31 0 -46 17.5t-15 40.5zM1096 -239l16 78q15 57 69 57q6 0 11.5 -4.5t5.5 -10.5t-5.5 -10t-11.5 -4q-32 0 -38 -34l-17 -79q-2 -13 -14 -13q-7 0 -11.5 5t-4.5 11v4zM1192 -201q3 16 16.5 26.5t25 13t30.5 5.5 q20 0 28 -1q0 1 1 5t1 5q0 15 -23 15q-3 0 -19.5 -3.5t-25.5 -3.5q-13 0 -13 9q0 14 21 21t44 7q48 0 48 -41q0 -2 -2 -8t-2 -8l-15 -70q-25 -27 -64 -27q-23 0 -39 15t-12 40zM1220 -211q0 -17 33 -17q11 0 25 6l9 35q-36 0 -51 -5t-16 -19zM1301 -288q0 10 7.5 13.5t17 3 t18 7t10.5 25.5l22 100h-20q-14 0 -14 17q0 5 4.5 9.5t9.5 4.5h27l2 24q13 58 71 58q14 0 14 -15q0 -9 -7 -12.5t-15.5 -3.5t-17.5 -8t-13 -24l-5 -19h44l6 20q0 11 14 11q15 0 15 -14l-1 -1q0 -2 -0.5 -6t-1.5 -10h22q6 0 10 -4.5t4 -9.5q0 -17 -14 -17h-29l-12 -60 q-2 -9 -2 -17q0 -12 7 -12q3 0 7.5 1.5t6.5 1.5q16 0 16 -15q0 -17 -27 -17q-17 0 -29 12t-12 33q0 3 0.5 6t1.5 7.5t1 6.5l11 53h-43l-22 -106q-13 -59 -69 -59q-6 0 -10.5 4.5t-4.5 11.5z" />
<glyph horiz-adv-x="1138" d="M115 223v792h146v-792q0 -37 29 -63t70 -26h35q41 0 70 26t29 63v366h147v-366q0 -22 -7 -50q31 -39 90 -39h37q44 0 79 27.5t35 61.5v496q0 33 -19 56.5t-51 34.5t-63.5 16t-67.5 5v147q201 0 201 171v114h146v-114q0 -91 -34 -162v-1q-24 -46 -57 -75q91 -68 91 -191 v-497q0 -98 -76.5 -166.5t-183.5 -68.5h-37q-99 0 -170 57q-70 -57 -159 -57h-35q-101 0 -173 68.5t-72 166.5z" />
<glyph horiz-adv-x="857" d="M-686 1264q0 73 51.5 125t125.5 52q72 0 124.5 -52.5t52.5 -124.5q0 -74 -52 -125.5t-125 -51.5q-75 0 -126 51t-51 126zM-569 1264q0 -26 17.5 -44t42.5 -18t42.5 18t17.5 44q0 25 -17.5 42.5t-42.5 17.5t-42.5 -17t-17.5 -43zM5 930q210 97 363 97q165 0 269 -89 t104 -221v-717h-147v717q0 67 -59 115t-167 48q-122 0 -302 -83z" />
<glyph d="M-714 1320q0 85 89 142q-13 22 -13 50q0 77 86.5 134.5t190.5 57.5q70 0 182 -40v-129q-35 9 -72 21t-59.5 17.5t-50.5 5.5q-48 0 -100 -21.5t-52 -45.5l54 -13l46 -15v-106h-49q-4 0 -18.5 1t-17.5 1q-28 0 -59.5 -22t-31.5 -38q0 -18 19.5 -30t49.5 -12q42 0 64 17.5 t45 60.5h128l-38 -96q-56 -107 -199 -107q-85 0 -139.5 48t-54.5 119z" />
<glyph d="M-376 240v29v12q0 8 1 12q17 103 60 132q22 14 42 22q25 16 87 41q25 5 38 13v12v3v5q-9 19 -9 21v2q3 0 5 -5q0 -3 1 -4q2 -5 5 -9.5t8.5 -9.5t8.5 -8t12 -9.5t11 -8.5q21 -8 36 -8q23 0 57 18.5t48 55.5q0 -10 -14 -33q-13 -13 -13 -28q0 -4 1 -6h2q20 0 27 -4 q89 -33 145 -90q35 -44 35 -115v-23v-8v-9h-594zM-212 701v21l16 26h4q2 0 2 1v7q25 8 29 54q4 2 10.5 4.5t10 4t6 4t2.5 5.5q8 0 12 4q8 -6 20 -6q0 6 13 13l9 -13q6 15 8 17h5q3 0 9 8q20 0 76 -14q5 -8 16.5 -16.5t17.5 -10.5q2 -14 17 -55t16 -45q0 -10 -3 -26.5 t-7 -33.5t-5 -23l-3 5q-7 -5 -17.5 -28t-10.5 -27v79q-10 9 -18 50q-25 43 -83 43q-63 0 -80 -53l-25 -45v-89h-8q-7 78 -17 97q-3 -10 -4 -15l-3 15q-3 -6 -3 -12q0 -5 5 -22t5 -23q-22 29 -22 99zM-195 633v3q3 0 3 -1q0 -2 -3 -2zM-182 481q6 -62 88 -104q43 0 62 12 l27 20q2 9 24 24t22 33q-4 16 -24 16q-2 0 -2 -2q0 -10 5 -18q-14 -33 -39 -49q6 17 11 17q2 3 5 21.5t3 24.5q0 13 -4 18q-40 -25 -66 -25q-21 0 -71 38l1 -10v1q0 -2 -6 -4l2 -27q-4 4 -19 9zM-182 769v2q2 0 2 -1t-2 -1zM-164 560v2q3 0 3 -2h-3zM-161 546v9q4 -1 4 -9 h-4zM-161 781q4 0 4 2q0 4 -4 4v-6zM-145 663l1 1l2 2q7 5 18 5q18 0 36 -11q-3 -1 -8 -1q-34 0 -49 4zM-139 640q13 10 23 10q19 0 24 -4l4 -5l2 -5q0 -1 -3.5 -2.5t-9.5 -4t-12 -2.5l15 4l1 2q0 2 1 2h-2q-3 0 -11.5 2t-10.5 2q-18 0 -21 1zM-128 642h3l7 -2q7 -1 9 -1 q-6 1 -6 5q0 2 5 4h-7q-2 -1 -11 -6zM-118 560q2 0 13.5 1t15.5 1q5 0 14 -2.5t10 -2.5q2 0 11.5 1.5t13.5 1.5q19 -3 23 -5q0 -11 -21.5 -21.5t-28.5 -10.5q-1 0 -6.5 0.5t-10.5 0.5q-10 0 -22 13.5t-12 22.5zM-108 556q1 -2 8 -11q25 -5 31 -5q2 0 12 0.5t15 0.5 q2 0 8.5 5t6.5 7t-9 2l-11 -1q-11 -1 -15 -1q-3 0 -10.5 2t-21.5 2l-5 -1h-7h-2zM-107 639h15l-1 3q-1 0 -3 1.5t-4 2.5l-1 1q1 0 1 -3q0 -4 -7 -5zM-104 643q0 -2 2 -2t2 2t-2 2t-2 -2zM-86 587q0 1 2 1q7 0 7 -4h-2h-2l-1 1q-4 0 -4 2zM-81 532h1l1 -1l2 -2h5v2v1l-6 1 l-2 1zM-79 633v7q3 0 3 -4q0 -3 -3 -3zM-67 531h7l3 1v1v2h-4v-1h-4h-2v-3zM-50 582l8 2h2l2 -2h-12zM-38 841q0 -2 5 -4l1 2q1 2 3 4q-9 0 -9 -2zM-37 631l7 6q6 6 9 6q10 0 18 -2.5t11 -5t3 -3.5l4 -3h-28q-4 0 -11 1t-9 1h-4zM-32 632h11q5 -1 8 -1l12 1h2q1 -1 8 -1 q-3 0 -9 5t-20 5q-1 0 -2 -0.5t-2 -2t-3 -3t-5 -3.5zM-30 654q6 8 11 8q24 0 35 -5q1 0 2 -1q5 -2 10 -7q-2 -1 -9 -1q-10 0 -26 6l-14 2h-4zM-23 837q6 0 6 3t-6 3v-6zM-21 635q0 5 8 5t8 -5q0 -3 -8 -3t-8 3zM-21 635q0 -1 2 -1q3 0 3 1q-2 2 -3 2q-2 0 -2 -2zM-20 622v2 h6q-2 -2 -6 -2zM35 813l11 -17q7 0 7 4t-6 8.5t-12 4.5zM36 560q2 8 5 11v-4q0 -7 -5 -7zM68 616v2q3 0 3 -1q-1 -1 -3 -1z" />
</font>
</defs>
</svg>
